<?xml version="1.0" encoding="UTF-8" standalone="no"?>
<!-- Created with Inkscape (http://www.inkscape.org/) -->

<svg
   xmlns:dc="http://purl.org/dc/elements/1.1/"
   xmlns:cc="http://creativecommons.org/ns#"
   xmlns:rdf="http://www.w3.org/1999/02/22-rdf-syntax-ns#"
   xmlns:svg="http://www.w3.org/2000/svg"
   xmlns="http://www.w3.org/2000/svg"
   xmlns:sodipodi="http://sodipodi.sourceforge.net/DTD/sodipodi-0.dtd"
   xmlns:inkscape="http://www.inkscape.org/namespaces/inkscape"
   id="svg3336"
   version="1.1"
   inkscape:version="0.91 r13725"
   width="2400"
   height="553.75"
   viewBox="0 0 2400 553.75"
   sodipodi:docname="banner.svg">
  <metadata
     id="metadata3342">
    <rdf:RDF>
      <cc:Work
         rdf:about="">
        <dc:format>image/svg+xml</dc:format>
        <dc:type
           rdf:resource="http://purl.org/dc/dcmitype/StillImage" />
        <dc:title></dc:title>
      </cc:Work>
    </rdf:RDF>
  </metadata>
  <defs
     id="defs3340" />
  <sodipodi:namedview
     pagecolor="#ffffff"
     bordercolor="#666666"
     borderopacity="1"
     objecttolerance="10"
     gridtolerance="10"
     guidetolerance="10"
     inkscape:pageopacity="0"
     inkscape:pageshadow="2"
     inkscape:window-width="1920"
     inkscape:window-height="1018"
     id="namedview3338"
     showgrid="false"
     inkscape:zoom="0.62333333"
     inkscape:cx="1172.0383"
     inkscape:cy="115.05236"
     inkscape:window-x="1672"
     inkscape:window-y="-8"
     inkscape:window-maximized="1"
     inkscape:current-layer="svg3336" />
  <g
     id="g3348"
     transform="translate(-4.9732544e-8,3.4224599e-6)">
    <path
       style="fill:#b6c5d0"
       d="M 0,276.875 0,0 l 1200,0 1200,0 0,276.875 0,276.875 -1200,0 -1200,0 0,-276.875 z"
       id="path3364"
       inkscape:connector-curvature="0" />
    <path
       style="fill:#a4b5c8"
       d="M 0,276.8798 0,0 l 1200,0 1200,0 0,276.875 0,276.875 -241.5625,-0.1075 c -155.474,-0.0691 -240.2261,-0.53308 -237.8125,-1.30176 2.0625,-0.65688 6.2813,-1.68219 9.375,-2.27848 34.3663,-6.62375 46.8079,-9.73946 68.75,-17.21672 23.8395,-8.12387 24.6415,-9.63098 3.125,-5.87247 -14.2116,2.4825 -50.2447,10.42137 -76.2522,16.80003 -38.3922,9.41611 -42.3708,9.99151 -67.9479,9.82672 -18.2345,-0.11749 -22.077,-0.41082 -17.6749,-1.34933 6.0852,-1.29734 37.4633,-8.21998 55.625,-12.27203 6.1875,-1.38047 19.125,-4.19765 28.75,-6.26037 9.625,-2.06274 22.2813,-4.88659 28.125,-6.27524 39.8586,-9.47159 60.9141,-14.75628 80.2873,-20.15119 27.1246,-7.55347 37.152,-10.17052 99.7127,-26.02397 79.1529,-20.05807 101.2062,-26.32767 103.8615,-29.52713 1.1003,-1.32564 1.0601,-2.20395 -0.1683,-3.684 -1.3636,-1.64301 -4.3335,-1.85347 -19.2154,-1.3617 -21.2939,0.70364 -36.3803,2.87161 -61.9778,8.90643 -10.6563,2.51228 -24.575,5.64317 -30.9305,6.95751 -6.3555,1.31434 -19.5743,4.33537 -29.375,6.71342 -9.8008,2.37806 -37.2258,8.57703 -60.9445,13.77549 -23.7188,5.19848 -48.4688,10.63147 -55,12.0733 -6.5313,1.44185 -20.875,4.8751 -31.875,7.62946 -11,2.75435 -23.0938,5.73642 -26.875,6.6268 -3.7813,0.89039 -15.7214,3.9187 -26.5336,6.72959 -21.7673,5.65889 -61.3084,14.9286 -83.4664,19.56715 -7.9062,1.6551 -22.5312,4.98881 -32.5,7.40825 -9.9687,2.41944 -24.709,5.8116 -32.7561,7.53813 l -14.6311,3.13914 -158.3972,-0.31731 -158.3972,-0.31728 51.7784,-14.62848 c 28.478,-8.04567 64.1532,-18.08902 79.2782,-22.31856 15.125,-4.22954 47.4688,-13.47998 71.875,-20.55651 24.4063,-7.07654 60.125,-17.19705 79.375,-22.49003 52.2646,-14.37067 91.9661,-25.75394 133.75,-38.34892 38.9391,-11.7375 79.8845,-23.55172 131.25,-37.87038 73.116,-20.38182 112.6413,-31.93454 164.6875,-48.13606 8.4286,-2.62374 11.4973,-4.50244 5,-3.06114 -12.3711,2.74433 -87.2757,22.53025 -119.0625,31.45016 -44.2284,12.41125 -72.223,19.33089 -75.2665,18.60427 -1.1779,-0.28119 -2.7417,0.21192 -3.4754,1.09581 -1.8116,2.18294 -11.2716,4.44664 -15.0576,3.60316 -2.507,-0.55852 -2.7289,-0.41894 -1.2005,0.75513 1.5559,1.19518 1.4314,1.31677 -0.732,0.71441 -1.4339,-0.39925 -7.3401,0.63572 -13.125,2.29992 -5.7849,1.66422 -17.268,4.80743 -25.518,6.98492 -8.25,2.1775 -31.5937,8.66413 -51.875,14.41476 -20.2812,5.75061 -46.1562,13.06346 -57.5,16.25076 -11.3437,3.1873 -31.0312,8.89831 -43.75,12.69114 -43.153,12.86853 -266.674,76.41791 -304.375,86.53703 -20.625,5.53582 -39.465,10.64305 -41.8667,11.34937 -5.77,1.69691 -412.9809,1.62635 -409.3833,-0.0709 1.86715,-0.8809 1.55074,-0.95171 -1.25,-0.27972 -2.0625,0.49487 -220.45312,1.06732 -485.3125,1.27212 L 0,553.75959 0,276.8798 Z m 1643.75,186.36205 c 5.1563,-1.6467 8.5002,-3.04978 7.431,-3.11793 -1.0692,-0.0681 -5.8505,1.24045 -10.625,2.90804 -11.2645,3.9343 -8.9452,4.08671 3.194,0.20989 z m 14.375,-4.49185 c 1.6484,-0.70835 1.8614,-1.09769 0.625,-1.143 -1.0312,-0.0378 -2.7187,0.47655 -3.75,1.143 -2.285,1.47665 -0.3114,1.47665 3.125,0 z m 40.0805,-11.81982 c 34.5971,-10.01736 40.6608,-11.87349 42.7355,-13.082 1.2011,-0.69969 1.5649,-1.28927 0.8083,-1.31017 -3.0188,-0.0834 -62.296,18.33836 -59.7938,18.58229 0.7318,0.0714 8.0443,-1.81422 16.25,-4.19012 z m 64.2945,-15.50363 3.125,-1.35586 -3.3902,0.33405 c -1.8647,0.18374 -3.7865,0.73034 -4.2709,1.21466 -0.4843,0.48432 -2.193,0.8806 -3.7973,0.8806 -1.6041,0 -2.9166,0.50326 -2.9166,1.11836 0,1.2126 6.1774,0.009 11.25,-2.19181 z m -10.643,-0.4358 c 3.1036,-0.8301 5.643,-1.92477 5.643,-2.43262 0,-0.84455 -12.4419,2.29655 -13.6459,3.44503 -0.9667,0.9222 2.328,0.5054 8.0029,-1.01241 z m 55.643,-12.3258 c 6.5313,-1.90245 21.1563,-6.24631 32.5,-9.65304 11.3438,-3.40671 32.4375,-9.69129 46.875,-13.96571 14.4375,-4.27444 43.4063,-13.01196 64.375,-19.41675 20.9688,-6.40478 50.7813,-15.39411 66.25,-19.9763 15.4688,-4.58219 39.0938,-11.61564 52.5,-15.62989 13.4063,-4.01426 32.5313,-9.65605 42.5,-12.53731 9.9688,-2.88126 27.125,-8.05589 38.125,-11.49918 11,-3.44327 30.6168,-9.41001 43.5926,-13.25941 12.976,-3.84941 22.9704,-7.20637 22.2097,-7.45994 -0.7607,-0.25355 -10.5337,2.08619 -21.7177,5.19944 -11.184,3.11324 -25.1158,6.85033 -30.9596,8.30464 -15.6899,3.90467 -125.5046,35.79519 -181.875,52.81702 -10.3125,3.11402 -25.5,7.44123 -33.75,9.61604 -19.7809,5.2145 -31.883,8.7852 -57.5,16.96528 -11.6875,3.73206 -24.625,7.64257 -28.75,8.69 -9.8849,2.50998 -29.9257,9.12203 -36.4069,12.01166 -2.8362,1.26455 -7.6175,2.68186 -10.625,3.14959 -3.0075,0.46772 -9.1244,2.52664 -13.5931,4.57536 -4.4687,2.04872 -9.8125,4.50155 -11.875,5.45073 l -3.75,1.72578 5,-0.82451 c 2.75,-0.45349 10.3438,-2.38106 16.875,-4.2835 z m -298.125,-64.25223 c 8.9375,-3.23532 24.6875,-8.8852 35,-12.55528 47.1403,-16.77662 154.2678,-57.16218 188.125,-70.92052 5.8438,-2.37468 11.6899,-4.6952 12.9914,-5.15668 1.3015,-0.4615 2.1105,-1.09498 1.7977,-1.40774 -1.0246,-1.02461 -61.5156,20.24602 -151.0391,53.11031 -13.4062,4.92148 -31.125,11.42113 -39.375,14.44368 -23.3866,8.56813 -66.1477,25.9732 -69.4867,28.28315 -3.0119,2.08366 -3.0112,2.08417 1.3617,1.08506 2.4063,-0.54976 11.6875,-3.64665 20.625,-6.88198 z"
       id="path3362"
       inkscape:connector-curvature="0" />
    <path
       style="fill:#92a1ad"
       d="M 0,276.875 0,0 l 1200,0 1200,0 0,120.6518 0,120.6518 -2.8125,1.18839 c -1.5469,0.6536 -15.75,4.61535 -31.5625,8.80387 -15.8125,4.18853 -44.5,12.0406 -63.75,17.44904 -51.0721,14.34915 -132.588,37.11494 -150.625,42.06662 -8.5937,2.35925 -51.625,14.73245 -95.625,27.49604 -44,12.76358 -89.8437,25.98505 -101.875,29.38106 -24.5642,6.93363 -71.477,20.72829 -141.875,41.71815 -26.125,7.78944 -59.3125,17.6349 -73.75,21.87883 -51.6751,15.18995 -111.9416,34.10951 -153.125,48.07079 -50.6196,17.16016 -80.8887,27.79994 -83.6069,29.38823 -4.5675,2.66912 2.1686,1.00406 19.7001,-4.86956 40.151,-13.45182 94.2702,-29.56088 105.7818,-31.48696 7.7395,-1.29494 9.1971,-1.6753 40,-10.4379 40.3265,-11.47184 98.2384,-28.54079 141.875,-41.81629 22.3437,-6.79761 52.1562,-15.83262 66.25,-20.07784 14.0937,-4.2452 43.9062,-13.27268 66.25,-20.06108 43.827,-13.31539 121.3535,-36.40884 145.625,-43.37854 8.25,-2.36904 30.75,-8.84975 50,-14.40158 19.25,-5.55182 44.5625,-12.77353 56.25,-16.04825 11.6875,-3.27472 34.1875,-9.71767 50,-14.31768 15.8125,-4.60002 37.4687,-10.77507 48.125,-13.72234 30.4266,-8.41531 62.0885,-17.64994 84.1251,-24.53624 11.1374,-3.48036 21.2343,-6.62134 22.4374,-6.97994 2.075,-0.61847 2.1875,7.26133 2.1875,153.24379 l 0,153.89579 -224.0625,-0.17023 c -123.2344,-0.0936 -222.6562,-0.39827 -220.9375,-0.677 1.7188,-0.27872 4.25,-0.9754 5.625,-1.54815 1.375,-0.57276 17.9688,-4.81245 36.875,-9.42155 36.6661,-8.93868 56.4289,-14.44701 62.1139,-17.3125 1.9311,-0.97335 5.1986,-2.17328 7.2611,-2.66653 2.0625,-0.49325 5.4375,-1.65552 7.5,-2.58282 2.0625,-0.92728 9.9375,-3.74808 17.5,-6.26845 7.5625,-2.52035 15.3983,-5.74756 17.4128,-7.17156 2.0144,-1.424 5.3895,-3.03815 7.5,-3.587 12.9122,-3.35796 -22.1306,1.96851 -54.6969,8.31386 -12.2563,2.38807 -23.7875,4.3194 -25.625,4.29188 l -3.3409,-0.05 3.125,-1.6789 c 1.7188,-0.9234 10.7188,-3.95688 20,-6.74106 15.9646,-4.78904 23.2766,-6.76665 63.75,-17.24165 38.714,-10.01967 110.5013,-29.82922 143.125,-39.49507 6.875,-2.03693 17.2813,-5.09668 23.125,-6.79942 16.4765,-4.8009 25.423,-8.07259 27.8226,-10.17455 2.0018,-1.75349 2.0229,-2.11818 0.2363,-4.09235 -1.3316,-1.47138 -3.2414,-1.99916 -5.9476,-1.64366 -6.4761,0.85071 -15.5747,1.51496 -30.8613,2.25307 -14.6323,0.70651 -22.8281,1.86054 -53.4085,7.52018 -9.469,1.75248 -20.3102,3.75235 -24.0915,4.44413 -17.1646,3.14033 -32.533,6.26574 -40,8.13467 -4.4687,1.11848 -11.8709,2.8015 -16.4491,3.74002 -4.5783,0.93851 -10.4845,2.28456 -13.125,2.99123 -2.6405,0.70665 -9.5821,2.4094 -15.4259,3.78387 -5.8437,1.37449 -16.5312,3.9072 -23.75,5.62825 -17.6348,4.20438 -27.6613,6.53083 -73.125,16.96699 -21.3125,4.89226 -66.875,15.8559 -101.25,24.36362 -34.375,8.50774 -74.875,18.35734 -90,21.88802 -15.125,3.53066 -42.4062,9.97612 -60.625,14.32323 -18.2187,4.34712 -36.5,8.55252 -40.625,9.34534 -5.4754,1.05235 -48.3182,1.34264 -158.7025,1.07531 L 1415.72,553.125 l 16.2025,-4.53583 c 8.9114,-2.4947 43.765,-12.22903 77.4525,-21.63187 33.6875,-9.40283 81.5,-22.92091 106.25,-30.04019 24.75,-7.11929 63.8438,-18.10671 86.875,-24.41651 43.0516,-11.79474 144.7736,-40.71165 158.125,-44.95085 10.8511,-3.44531 61.2106,-17.76528 118.75,-33.76708 54.2633,-15.0907 70.2559,-19.7618 135.625,-39.61318 46.7685,-14.20272 77.5,-24.08995 77.5,-24.93405 0,-0.29319 -1.2656,-0.2538 -2.8125,0.0875 -1.5469,0.34133 -12.0937,2.652 -23.4375,5.13482 -11.3437,2.48281 -33.8437,7.89376 -50,12.02433 -43.2901,11.0677 -58.2331,14.68231 -69.375,16.78137 -5.5,1.03618 -17.5937,3.85976 -26.875,6.27464 -44.5335,11.58715 -80.959,21.4719 -110.4205,29.96472 -17.7625,5.12038 -48.4187,13.7578 -68.125,19.19427 -68.0587,18.77573 -86.025,23.96241 -136.4545,39.3931 -49.3432,15.09831 -73.2978,22.11466 -172.5,50.52595 -63.2729,18.12121 -86.5781,24.43713 -125.2456,33.94271 -17.6664,4.34289 -31.8759,8.29232 -31.5766,8.77652 0.5681,0.91927 -3.6924,2.38195 -6.9278,2.37838 -1.6666,-10e-4 -1.6666,-0.1367 0,-1.21379 2.6128,-1.6885 -3.3816,-1.68242 -8.251,0.009 -2.3875,0.829 -70.0836,1.14889 -198.4018,0.9375 l -194.77781,-0.32121 10.4028,-4.01745 c 5.72155,-2.2096 13.676,-5.21766 17.67656,-6.68459 4.00056,-1.46692 6.98125,-2.9596 6.62385,-3.31706 -0.3575,-0.35748 -11.00256,2.79121 -23.65571,6.99708 l -23.00573,7.64702 -477.68057,0 L 0,553.75 0,276.875 Z M 1450.625,526.25 c 1.6484,-0.70835 1.8614,-1.09769 0.625,-1.143 -1.0312,-0.0377 -2.7187,0.47655 -3.75,1.143 -2.285,1.47665 -0.3114,1.47665 3.125,0 z m 11.875,-3.75 c 1.6666,-1.07709 1.6666,-1.21171 0,-1.21171 -1.0312,0 -2.7187,0.54526 -3.75,1.21171 -1.6666,1.07709 -1.6666,1.21171 0,1.21171 1.0313,0 2.7188,-0.54526 3.75,-1.21171 z m 35.9115,-12.00521 c -0.4154,-0.41536 -1.4935,-0.45977 -2.3959,-0.0986 -0.9971,0.39903 -0.701,0.69523 0.7553,0.7552 1.3176,0.0542 2.056,-0.24116 1.6406,-0.65652 z M 1418.125,388.22964 c 3.4375,-0.9396 29.3125,-9.97659 57.5,-20.08222 28.1875,-10.10562 58.2813,-20.81232 66.875,-23.79267 8.5938,-2.98035 28.2813,-10.00189 43.75,-15.60341 15.4688,-5.60153 34.3125,-12.32295 41.875,-14.93648 19.6698,-6.79767 67.0733,-24.37242 96.25,-35.6845 13.75,-5.33097 28.6563,-10.97161 33.125,-12.53473 4.4688,-1.56314 14.7219,-5.43037 22.7847,-8.59384 8.0631,-3.16349 14.9145,-5.75179 15.2258,-5.75179 0.3111,0 6.0892,-2.65691 12.8401,-5.90426 6.7509,-3.24734 12.8369,-5.94253 13.5244,-5.98929 0.6875,-0.0468 2.6562,-0.7191 4.375,-1.49405 1.7187,-0.77496 4.1899,-1.74926 5.4914,-2.16512 1.3015,-0.41588 2.0131,-1.1095 1.5811,-1.54141 -2.0443,-2.04426 -112.9915,36.50117 -275.8225,95.82661 -15.4688,5.63583 -34.0313,12.37515 -41.25,14.97622 -26.2435,9.45616 -97.0481,36.18153 -103.6851,39.13619 -4.2913,1.91041 -6.1405,3.29675 -5,3.74826 1.5652,0.61959 1.5565,0.91316 -0.065,2.17013 -2.0639,1.60003 -1.2612,1.46528 10.625,-1.78364 z m 447.882,164.44701 c 0.8975,-0.56929 4.5538,-1.07493 8.125,-1.12364 4.9863,-0.068 5.7678,0.1477 3.368,0.92961 -4.2271,1.37726 -13.6084,1.53563 -11.493,0.19403 z"
       id="path3360"
       inkscape:connector-curvature="0" />
    <path
       style="fill:#778997"
       d="M 0,276.875 0,0 l 1200,0 1200,0 0,119.94707 0,119.94707 -8.4375,2.49332 c -4.6406,1.37133 -19.9687,5.64129 -34.0625,9.48882 -14.0937,3.84752 -41.375,11.42865 -60.625,16.84692 -19.25,5.41829 -60.3125,16.96002 -91.25,25.6483 -92.7894,26.05834 -279.3834,80.08007 -395,114.3584 -55.0065,16.30848 -133.4986,39.43329 -165.625,48.79535 -11.3437,3.30573 -31.5937,9.21957 -45,13.14191 -13.4062,3.92234 -25.353,7.40952 -26.5485,7.74929 -1.1954,0.33977 -1.8976,1.06386 -1.5607,1.60909 0.337,0.54522 -0.601,0.67391 -2.0845,0.28598 -1.6779,-0.43877 -2.3967,-0.21906 -1.902,0.58139 0.4461,0.72176 -1.5445,2.1803 -4.5338,3.3219 -6.6415,2.53639 -10.1025,2.59873 -5.8705,0.10575 l 3.125,-1.84086 -3.75,0.76212 c -20.6035,4.18737 -168.5754,48.58619 -153.125,45.94505 6.5904,-1.12657 38.8793,-9.9924 53.75,-14.75853 12.4214,-3.98113 35.9374,-11.04037 73.6204,-22.10005 16.1558,-4.74163 25.3442,-6.08914 13.8563,-2.03209 -3.0809,1.08807 -18.9019,6.75232 -35.1578,12.58722 -32.9665,11.83303 -131.3443,44.29069 -146.416,48.30682 -9.6366,2.56788 -11.3914,2.59023 -199.7418,2.54377 -130.4439,-0.0321 -189.76949,-0.45186 -189.22144,-1.33861 0.46033,-0.74483 2.40188,-0.93954 4.58573,-0.45989 2.09227,0.45954 3.48293,0.33925 3.10716,-0.26877 -0.63631,-1.02957 23.45105,-10.61892 79.74245,-31.74598 30.9422,-11.61311 59.0547,-22.8736 70,-28.03857 15.1247,-7.1372 100.8549,-38.68827 128.125,-47.15353 4.4688,-1.3872 12.3437,-3.87775 17.5,-5.53456 5.1563,-1.6568 12.1875,-3.81408 15.625,-4.79395 7.2351,-2.06238 28.2295,-9.24923 50.625,-17.33009 13.5425,-4.88646 40.1028,-14.32556 131.25,-46.64409 10.6563,-3.77843 34.5625,-12.11206 53.125,-18.51915 30.7025,-10.59737 76.2888,-27.01276 140,-50.41328 33.5303,-12.31533 158.3139,-59.17639 178.75,-67.12748 4.125,-1.60491 26.9063,-10.32546 50.625,-19.37901 55.5449,-21.2017 77.8293,-30.02588 79.3346,-31.41503 1.6068,-1.48276 -4.108,0.28693 -41.8346,12.95485 -17.5312,5.88668 -43.6875,14.47499 -58.125,19.08515 -14.4375,4.61015 -36.375,11.96032 -48.75,16.3337 -12.375,4.37339 -45,15.89155 -72.5,25.59592 -46.654,16.46352 -93.2157,33.0655 -133.125,47.46677 -9.2812,3.34915 -30.9375,11.13675 -48.125,17.30578 -28.7046,10.30282 -127.9436,46.6953 -168.125,61.65402 -16.6576,6.2013 -55.7124,20.53099 -81.25,29.81165 -13.1532,4.78004 -32.8477,12.06844 -106.25,39.32033 -21.6562,8.04026 -46.125,17.03258 -54.375,19.98293 -16.1347,5.77008 -37.9863,13.79202 -120,44.0533 -79.8792,29.4737 -89.46361,32.92994 -96.62349,34.84345 -5.65756,1.51198 -75.24715,1.77013 -477.1875,1.77013 L 0,553.75 0,276.875 Z m 1420.1041,276.39501 c 0.7278,-0.67062 57.6794,-16.84935 114.8959,-32.6394 26.4688,-7.3046 63.5938,-17.71265 82.5,-23.12902 18.9063,-5.41637 54.0625,-15.25893 78.125,-21.87234 24.0625,-6.61343 89.875,-25.17051 146.25,-41.23796 56.375,-16.06745 126.8888,-36.03768 156.6973,-44.37829 59.2437,-16.57676 121.9188,-35.045 167.6777,-49.40896 16.1563,-5.07154 43.1563,-13.20768 60,-18.08031 16.8438,-4.87264 41.3125,-12.18771 54.375,-16.25569 13.0625,-4.06799 33.46,-10.32308 45.3278,-13.90022 11.8678,-3.57713 21.3541,-6.72758 21.0807,-7.00101 -0.525,-0.52492 -5.2447,0.66867 -55.1585,13.94914 -17.1875,4.57305 -38.8437,10.30842 -48.125,12.74526 -9.2812,2.43684 -20.5312,5.47987 -25,6.76228 -13.2769,3.8101 -24.8715,6.27132 -34.9689,7.42297 -14.0015,1.5969 -117.3985,27.44794 -177.5311,44.38588 -26.0949,7.35031 -55.9055,15.11331 -76.875,20.01905 -4.8125,1.12586 -15.7812,4.22288 -24.375,6.88227 -8.5937,2.65939 -20.9687,6.24543 -27.5,7.96899 -6.5312,1.72355 -28.75,7.99434 -49.375,13.93507 -20.625,5.94075 -45.375,13.03212 -55,15.75859 -9.625,2.72648 -30.7187,9.19146 -46.875,14.36664 -76.1076,24.37879 -204.62,62.03154 -246.875,72.33168 -7.4884,1.82536 10.3616,-4.97021 21.6716,-8.25053 7.3306,-2.12613 19.2347,-5.73421 26.4534,-8.01796 35.4955,-11.22953 126.4495,-38.08778 196.875,-58.13622 17.1875,-4.89286 39.6875,-11.6335 50,-14.97918 49.1356,-15.94109 274.9513,-83.76776 324.7225,-97.53464 31.9491,-8.83725 148.7054,-42.26551 165.9025,-47.49925 6.5313,-1.98771 29.3125,-8.44246 50.625,-14.3439 33.9815,-9.40949 77.8301,-22.1389 82.7049,-24.00955 1.3816,-0.53017 1.6701,11.88784 1.6701,71.89593 l 0,72.5368 -4.0625,1.2644 c -4.182,1.30161 -12.6984,3.06202 -36.5625,7.55791 -90.7089,17.08905 -136.6198,27.16444 -249.375,54.7267 -38.1562,9.32704 -76.125,18.54096 -84.375,20.47537 -8.25,1.93442 -46.7812,11.46328 -85.625,21.17527 -38.8437,9.71198 -89.1875,22.09776 -111.875,27.52396 -22.6875,5.4262 -57.5625,13.8201 -77.5,18.65311 l -36.25,8.7873 -147.3959,0.0149 c -81.0676,0.009 -147.1613,-0.20107 -146.875,-0.46506 z m 553.0209,-0.80289 c 2.0625,-0.56483 10.7813,-2.74808 19.375,-4.85168 8.5938,-2.10359 35.5938,-8.85364 60,-15.00012 63.2596,-15.93132 87.194,-21.9279 105,-26.30688 16.6706,-4.09978 35.6054,-9.12758 45.3125,-12.03194 3.2656,-0.97707 8.6094,-2.57856 11.875,-3.55885 6.5598,-1.96914 29.5015,-10.10301 33.4375,-11.8551 1.375,-0.61206 6.8669,-2.96149 12.2043,-5.22095 5.3373,-2.25946 9.2332,-4.57916 8.6575,-5.15487 -1.272,-1.27203 -19.2974,0.62456 -44.8573,4.71978 -21.0736,3.37643 -25.989,3.68435 -18.5045,1.15922 4.8996,-1.65304 57.7074,-18.52329 72.5,-23.16125 12.3396,-3.86887 73.4672,-20.2641 95.625,-25.64792 3.7813,-0.91876 10.4639,-2.82608 14.8504,-4.23851 4.3864,-1.41242 8.7457,-2.56805 9.6875,-2.56805 1.4284,0 1.7121,11.18656 1.7121,67.5 l 0,67.5 -215.3125,-0.12795 c -118.4219,-0.0704 -213.625,-0.59009 -211.5625,-1.15492 z"
       id="path3358"
       inkscape:connector-curvature="0" />
    <path
       style="fill:#6a7788"
       d="M 0,276.875 0,0 l 1200.0063,0 1200.0062,0 -0.3187,119.66725 -0.3188,119.66725 -26.25,7.244 c -79.7775,22.01556 -253.1815,71.20955 -329.375,93.44234 -28.5313,8.32523 -68.4688,19.9249 -88.75,25.77701 -38.3915,11.07779 -98.2783,28.63649 -155,45.44571 -50.1265,14.85475 -131.1284,38.3589 -226.25,65.65043 -144.0455,41.32841 -223.7389,65.37797 -226.875,68.46548 -0.8225,0.8097 -0.1811,0.9387 1.875,0.37714 1.7187,-0.46942 8.4687,-1.96597 15,-3.32566 14.548,-3.02865 21.9856,-5.05876 62.5,-17.05956 55.1875,-16.34717 60.489,-17.85385 62.4554,-17.74987 3.5773,0.18919 -5.482,3.5144 -49.3304,18.10657 -77.2969,25.72335 -85.1044,28.04411 -94.2747,28.02277 -6.2138,-0.0145 -7.7668,-0.34899 -6.3503,-1.36792 1.4974,-1.07713 1.3715,-1.16049 -0.625,-0.41388 -1.375,0.51419 -6.4375,1.11022 -11.25,1.3245 -6.4865,0.28881 -7.9416,0.087 -5.625,-0.7799 2.4354,-0.9114 2.0216,-0.99683 -1.875,-0.38713 -2.75,0.43028 -80.375,0.97603 -172.5,1.21277 -144.7586,0.37198 -167.04303,0.19097 -164.1342,-1.33311 1.8512,-0.96995 8.6012,-3.74228 15,-6.16074 6.3988,-2.41846 23.4467,-8.993 37.8842,-14.6101 14.4375,-5.6171 31.3125,-12.08266 37.5,-14.36794 6.1875,-2.28527 29.25,-10.98835 51.25,-19.34016 49.4751,-18.78215 49.6818,-18.85717 165.625,-60.1315 92.0879,-32.78211 124.1687,-44.11808 160.625,-56.75776 141.7656,-49.15133 371.0046,-133.81643 542.5,-200.36214 12.375,-4.8019 31.5,-12.22659 42.5,-16.49933 19.1032,-7.42027 27.3962,-11.09783 25.271,-11.20647 -1.4693,-0.0751 -197.6194,65.56651 -237.146,79.36091 -18.9063,6.59809 -45.625,15.96969 -59.375,20.82576 -13.75,4.85608 -34.2813,12.07573 -45.625,16.04368 -11.3438,3.96795 -54.6563,19.58915 -96.25,34.71376 -66.136,24.04883 -107.1988,39.0983 -197.5,72.38356 -12.0313,4.43475 -38.4688,14.15282 -58.75,21.59571 -138.7167,50.90672 -226.6536,83.26776 -265,97.52077 -75.2544,27.97139 -138.87514,51.37516 -149.92199,55.15091 l -10.54699,3.60489 -470.39051,0 L 0,553.75 0,276.875 Z M 2066.25,151.25 c 1.0313,-0.66645 1.3125,-1.21171 0.625,-1.21171 -0.6875,0 -2.0937,0.54526 -3.125,1.21171 -1.0312,0.66645 -1.3125,1.21171 -0.625,1.21171 0.6875,0 2.0938,-0.54526 3.125,-1.21171 z m -643.6459,402.0289 c 0.7109,-0.643 63.1429,-18.28486 111.1459,-31.40734 21.6563,-5.92011 54.2813,-14.98922 72.5,-20.15357 18.2188,-5.16437 55.3438,-15.57207 82.5,-23.12823 27.1563,-7.55617 85.8646,-24.13256 130.463,-36.83644 44.5984,-12.70387 108.4421,-30.7024 141.875,-39.99672 79.3129,-22.04895 167.706,-47.50318 220.787,-63.5792 23.375,-7.07931 48.4063,-14.5761 55.625,-16.65955 7.2188,-2.08345 30.2813,-8.92994 51.25,-15.21444 20.9688,-6.2845 47.6875,-14.28419 59.375,-17.77707 11.6875,-3.4929 27.5721,-8.52774 35.2991,-11.18853 7.727,-2.6608 14.6176,-4.83781 15.3125,-4.83781 0.8329,0 1.2634,19.5659 1.2634,57.41576 0,53.6039 -0.1452,57.45838 -2.1875,58.05745 -2.3207,0.68079 -41.3735,9.58983 -127.1875,29.01505 -98.6604,22.3332 -103.5601,23.5203 -342.5,82.97926 -68.75,17.10809 -135.9687,33.72433 -149.375,36.92498 -13.4062,3.20064 -34.409,8.30294 -46.6727,11.33842 l -22.2978,5.51908 -143.848,0 c -79.1165,0 -143.6138,-0.21199 -143.3274,-0.4711 z m 576.7709,-1.4034 c 2.75,-0.96535 10.0625,-2.93325 16.25,-4.37314 10.3598,-2.41078 32.6546,-8.4307 65.625,-17.71955 7.2188,-2.03376 40.4063,-10.64825 73.75,-19.1433 141.4791,-36.04489 151.7008,-38.95702 175.625,-50.03566 6.875,-3.18361 14.6094,-6.67594 17.1875,-7.76072 6.2524,-2.63078 5.9434,-4.4026 -0.625,-3.58519 -2.9219,0.36361 -10.375,1.27495 -16.5625,2.02517 -6.1875,0.75024 -14.3437,1.87563 -18.125,2.50087 -8.4307,1.39403 -24.9104,2.65207 -22.9459,1.75165 11.6913,-5.35864 47.2585,-15.97369 106.3834,-31.7501 l 4.0625,-1.08402 0,65.52425 0,65.52424 -202.8125,-0.0596 c -175.7151,-0.0517 -202.1445,-0.29418 -197.8125,-1.81483 z m -407.1094,-63.97939 c 0.9024,-0.36108 1.9805,-0.31668 2.3959,0.0986 0.4154,0.41536 -0.323,0.7108 -1.6406,0.65652 -1.4563,-0.06 -1.7524,-0.35617 -0.7553,-0.7552 z m 12.5,-3.75 c 0.9024,-0.36108 1.9805,-0.31668 2.3959,0.0986 0.4154,0.41536 -0.323,0.7108 -1.6406,0.65652 -1.4563,-0.06 -1.7524,-0.35617 -0.7553,-0.7552 z M 1623.125,478.75 c 3.4375,-1.26844 7.0938,-2.30624 8.125,-2.30624 1.0313,0 -0.9375,1.0378 -4.375,2.30624 -3.4375,1.26844 -7.0937,2.30624 -8.125,2.30624 -1.0312,0 0.9375,-1.0378 4.375,-2.30624 z m 12.5,-3.75 c 1.375,-0.59086 3.3438,-1.07429 4.375,-1.07429 1.1819,0 0.9508,0.39714 -0.625,1.07429 -1.375,0.59086 -3.3437,1.07429 -4.375,1.07429 -1.1819,0 -0.9507,-0.39714 0.625,-1.07429 z m 386.9196,-112.9878 c 2.4319,-2.30886 48.2462,-16.93265 92.4554,-29.51149 19.5938,-5.57501 43.7813,-12.57829 53.75,-15.56286 32.5237,-9.73738 131.064,-37.78934 166.875,-47.50518 19.25,-5.2227 41.4688,-11.37251 49.375,-13.66626 l 14.375,-4.17044 0.373,8.09987 c 0.2051,4.45492 0.097,8.37578 -0.2403,8.71302 -0.3372,0.33725 -10.3487,3.02813 -22.2478,5.97973 -26.161,6.48927 -44.7416,11.41923 -72.8849,19.33841 -11.6875,3.28871 -28,7.23391 -36.25,8.7671 -13.2984,2.47137 -54.2603,11.90835 -73.125,16.84682 -3.7812,0.98988 -9.9687,2.16548 -13.75,2.61247 -9.7235,1.14941 -31.5066,6.67348 -71.25,18.06858 -31.2291,8.95392 -86.2811,23.72803 -88.4165,23.72803 -0.4781,0 -0.045,-0.78201 0.9611,-1.7378 z"
       id="path3356"
       inkscape:connector-curvature="0" />
    <path
       style="fill:#545a61"
       d="M 0,276.875 0,0 l 1200,0 1200,0 0,119.22661 0,119.2266 -5.9375,1.47655 c -21.6297,5.37894 -230.2396,64.41938 -315.9375,89.41614 -26.8125,7.8208 -68.4375,19.92731 -92.5,26.90337 -24.0625,6.97607 -85.6562,24.98045 -136.875,40.00974 -92.8537,27.24639 -139.8737,40.88921 -260.625,75.62016 -90.1182,25.92018 -171.7661,49.88908 -221.25,64.95115 -23.375,7.11497 -46.061,13.83257 -50.4135,14.92799 -7.0505,1.77451 -25.7916,1.98093 -171.875,1.893 -118.3914,-0.0712 -162.91926,-0.47162 -160.2115,-1.44051 8.97946,-3.21305 76.6207,-28.80046 93.125,-35.22744 26.4878,-10.3147 64.0885,-24.54 86.25,-32.63059 29.0706,-10.61292 146.4068,-52.80463 160,-57.53275 6.5313,-2.27176 20.875,-7.30538 31.875,-11.18585 11,-3.88045 31.5313,-11.0035 45.625,-15.82898 47.4019,-16.22969 56.1648,-19.36748 210,-75.19597 38.8438,-14.09682 110.2813,-39.98313 158.75,-57.52515 79.6298,-28.81991 122.891,-44.65556 136.875,-50.1027 2.75,-1.0712 17.0938,-6.42895 31.875,-11.90611 30.5337,-11.31421 66.5286,-25.15774 83.125,-31.96961 17.5441,-7.20085 20.44,-8.37133 55,-22.22996 17.875,-7.16792 42.9063,-17.10609 55.625,-22.08484 19.5958,-7.67076 35.6318,-14.75802 26.875,-11.87766 -30.826,10.13955 -72.6867,24.1708 -118.75,39.80365 -31.625,10.73282 -58.5445,19.51848 -59.8212,19.52368 -1.4799,0.006 -2.0774,-0.62587 -1.6485,-1.74352 0.6653,-1.73409 -29.4717,7.90567 -66.0303,21.12071 -8.9375,3.23069 -26.375,9.41875 -38.75,13.75124 -73.4563,25.71704 -153.8182,54.9364 -235.625,85.67255 -33.3437,12.5278 -73.2812,27.43634 -88.75,33.13007 -35.9567,13.235 -93.2889,34.4407 -151.25,55.94365 -25.0937,9.3095 -53.5,19.84658 -63.125,23.41574 -21.0852,7.81884 -76.3459,28.10759 -122.5,44.97545 -18.5625,6.784 -56.5312,20.85338 -84.375,31.26528 -27.8437,10.41191 -74.25,27.63751 -103.125,38.27912 -28.875,10.6416 -59.96273,22.12731 -69.08383,25.52378 l -16.58382,6.17541 -469.97868,0 L 0,553.75 0,276.875 Z M 1328.75,552.5 c 1.0313,-0.66645 2.4375,-1.21171 3.125,-1.21171 0.6875,0 0.4063,0.54526 -0.625,1.21171 -1.0312,0.66645 -2.4375,1.21171 -3.125,1.21171 -0.6875,0 -0.4062,-0.54526 0.625,-1.21171 z m 20.625,-2.04044 c 8.8188,-3.12875 75.3178,-22.99222 76.7368,-22.92155 2.2978,0.11438 -6.4742,3.32355 -38.7645,14.18144 -24.7757,8.33096 -37.4607,12.00194 -41.25,11.93751 l -5.4723,-0.093 8.75,-3.10435 z m 89.375,-0.95291 c 7.9063,-2.25731 45.5938,-12.675 83.75,-23.15044 38.1563,-10.47542 84.8438,-23.46496 103.75,-28.86562 18.9063,-5.40068 53.5,-15.16209 76.875,-21.69203 23.375,-6.52995 81.0313,-22.83567 128.125,-36.23495 47.0938,-13.39926 114.3125,-32.32943 149.375,-42.06702 60.7841,-16.88105 153.8245,-43.32171 228.125,-64.82973 44.4735,-12.8739 169.1381,-50.36976 181.1565,-54.48712 5.1048,-1.74885 9.4641,-3.17974 9.6875,-3.17974 0.2233,0 0.406,24.71013 0.406,54.91138 l 0,54.91137 -7.1875,1.46258 c -3.9531,0.80442 -24.2301,5.3402 -45.06,10.07952 -35.6439,8.10988 -112.1181,23.95141 -125.8775,26.07536 -3.4375,0.53063 -10.75,2.16214 -16.25,3.62558 -5.5,1.46344 -13.375,3.17215 -17.5,3.79714 -4.125,0.62498 -10.875,1.98188 -15,3.01532 -4.125,1.03343 -10.875,2.5563 -15,3.38415 -4.125,0.82785 -8.9062,1.96799 -10.625,2.53364 -1.7187,0.56565 -6.5,1.40611 -10.625,1.86767 -4.125,0.46158 -8.5217,1.38462 -9.7706,2.05123 -1.2489,0.6666 -4.9051,1.68972 -8.125,2.27361 -3.2199,0.58389 -9.2294,1.97751 -13.3544,3.09693 -4.125,1.11942 -8.7387,2.23691 -10.2529,2.4833 -4.1662,0.678 -11.0662,2.97671 -23.4971,7.82797 -6.1875,2.41473 -15.1875,5.13839 -20,6.05259 -4.8125,0.9142 -11,2.30336 -13.75,3.08702 -2.75,0.78367 -8.0937,1.96915 -11.875,2.63443 -3.7812,0.66526 -9.4062,1.78561 -12.5,2.48967 -3.0937,0.70405 -9.3416,1.99815 -13.884,2.87577 -4.5425,0.87762 -8.9319,2.01146 -9.7541,2.51966 -0.8224,0.5082 -3.8558,1.18677 -6.741,1.50795 -2.8853,0.32119 -7.2146,1.89736 -9.6209,3.50262 -9.3419,6.2322 -115.4898,33.82333 -236.25,61.40875 -13.4062,3.0624 -26.1289,6.39318 -28.2725,7.40172 -3.3551,1.57857 -23.4435,1.82677 -144.375,1.78381 l -140.4775,-0.0499 14.375,-4.10417 z m 600.1041,3.75935 c 0.2865,-0.2662 6.9897,-2.26434 14.8959,-4.44031 17.2939,-4.75967 28.7092,-8.68527 31.25,-10.74652 6.1764,-5.01068 19.0051,-9.08132 66.875,-21.21991 20.625,-5.22997 47.0625,-11.9423 58.75,-14.91629 11.6875,-2.97398 28.8438,-7.20635 38.125,-9.40526 19.7855,-4.68757 49.0037,-12.81086 71.875,-19.98271 19.8072,-6.21108 75.1524,-21.305 78.1194,-21.305 0.8204,0 1.2556,17.7641 1.2556,51.25 l 0,51.25 -180.8334,0 c -99.4582,0 -180.5988,-0.2178 -180.3125,-0.484 z m 113.7585,-228.74411 c 1.55,-1.65748 87.2414,-26.33455 88.1817,-25.39424 0.2595,0.25949 -1.9224,1.16182 -4.8488,2.00519 -7.6669,2.20962 -24.4621,7.23757 -40.3205,12.0707 -7.5625,2.30481 -19.375,5.63437 -26.25,7.39903 -6.875,1.76467 -13.625,3.54588 -15,3.95824 -1.375,0.41236 -2.1681,0.39485 -1.7624,-0.0389 z m 90.903,-26.62578 c 0.9024,-0.36109 1.9805,-0.31669 2.3959,0.0986 0.4154,0.41536 -0.323,0.7108 -1.6406,0.65652 -1.4563,-0.06 -1.7524,-0.35617 -0.7553,-0.7552 z m 35.3276,-4.12352 c 1.0825,-0.63327 8.9575,-3.21403 17.5,-5.73502 12.2594,-3.6179 85.2653,-27.11897 93.6568,-30.14873 1.0313,-0.37234 3.7031,-1.1154 5.9375,-1.65127 l 4.0625,-0.9743 0,5.98613 c 0,5.40104 -0.2749,5.97739 -2.8125,5.89661 -5.3709,-0.17095 -50.9311,10.44299 -103.4375,24.09731 -15.0465,3.91287 -18.1811,4.44472 -14.9068,2.52927 z m -304.1766,-116.4277 c 0.848,-0.85428 1.8567,-1.23834 2.2415,-0.85348 0.3848,0.38486 -0.309,1.08381 -1.5417,1.55323 -1.7815,0.67835 -1.925,0.53477 -0.6998,-0.69975 z"
       id="path3354"
       inkscape:connector-curvature="0" />
    <path
       style="fill:#281409"
       d="M 0,276.875 0,0 l 1200,0 1200,0 0,5.9375 0,5.9375 -18.885,6.18019 c -10.4995,3.436 -22.1407,6.415689 -26.2172,6.710556 -4.1177,0.297839 -7.9607,1.287503 -8.7655,2.257309 -0.7934,0.94982 -3.1317,1.726945 -5.2012,1.726945 -2.0695,0 -21.5475,5.945435 -43.2844,13.212077 -21.737,7.266642 -51.0529,16.791965 -65.1467,21.167385 -34.1765,10.610123 -53.6479,17.142554 -96.875,32.50039 -36.5941,13.001268 -141.9589,51.298358 -173.125,62.926048 -15.3909,5.74215 -42.7866,15.83047 -100.625,37.05457 -11.6875,4.28879 -40.9375,14.95851 -65,23.71047 -116.5836,42.40356 -222.4299,83.08233 -304.375,116.97722 -187.8874,77.71569 -356.7313,143.80392 -516.18746,202.04405 -14.05935,5.13508 -28.80803,10.70254 -32.77484,12.37214 l -7.21237,3.03565 -468.16267,0 L 0,553.75 0,276.875 Z m 996.4042,275.30718 c 2.59155,-2.56908 108.5729,-41.66916 244.8458,-90.33187 42.9688,-15.34402 104,-37.27537 135.625,-48.73634 97.8311,-35.45416 116.5764,-42.21602 211.25,-76.20278 17.875,-6.41693 46.2813,-16.72224 63.125,-22.9007 45.5678,-16.71473 95.6111,-34.95691 129.375,-47.16079 16.5,-5.96389 42.9375,-15.52163 58.75,-21.23941 15.8125,-5.71778 45.3438,-16.38992 65.625,-23.71584 20.2813,-7.32594 58.5313,-21.2164 85,-30.8677 107.7794,-39.29961 131.5113,-48.03465 228.75,-84.19643 32.6563,-12.144419 71.4688,-26.571699 86.25,-32.060619 53.9245,-20.024511 69.9034,-26.085017 75.2099,-28.52576 5.4101,-2.488426 5.411,-2.490081 1.0401,-1.774025 -2.4062,0.3942 -5.4259,1.01501 -6.7104,1.379579 -1.5593,0.442607 -2.1541,0.119187 -1.79,-0.973394 0.3,-0.899935 2.3076,-2.092871 4.4614,-2.650967 4.3165,-1.118535 6.6187,-3.475134 3.3949,-3.475134 -2.2279,0 -28.8302,8.671593 -114.8871,37.450018 -68.707,22.976392 -73.2738,23.934122 -22.5938,4.738217 11.6875,-4.426834 35.3125,-13.413601 52.5,-19.970596 17.1875,-6.556994 36.5938,-13.918575 43.125,-16.359069 6.5313,-2.440494 16.0938,-6.202569 21.25,-8.360166 5.1563,-2.157599 10.7813,-4.390305 12.5,-4.961569 6.492,-2.157762 12.1283,-4.957729 13.6355,-6.773835 1.9764,-2.381354 12.3798,-6.41445 13.5436,-5.250499 0.4804,0.480388 0.046,1.396733 -0.9654,2.036324 -1.2452,0.787526 -1.3343,1.169071 -0.2762,1.182034 2.0315,0.02489 2.0315,6.513795 0,8.702521 -1.25,1.346705 -1.25,1.506951 0,0.801229 0.8594,-0.485183 1.5625,-0.333329 1.5625,0.337454 0,0.670782 -0.7031,1.503321 -1.5625,1.850086 -1.25,0.504386 -1.25,0.65022 0,0.729167 1.8418,0.116325 2.1449,3.848684 0.3125,3.848684 -0.6875,0 -1.25,0.595698 -1.25,1.323771 0,0.728074 0.5625,0.976128 1.25,0.551229 0.8292,-0.512504 1.25,32.019803 1.25,96.64957 l 0,97.42213 -3.4375,1.31209 c -1.8906,0.72165 -27.3437,8.07021 -56.5625,16.33013 -69.4766,19.64052 -163.157,46.64532 -273.75,78.91257 -49.1562,14.34212 -100.3437,29.25539 -113.75,33.1406 -13.4062,3.88521 -56.7187,16.53736 -96.25,28.11588 -39.5312,11.57854 -117.7187,34.277 -173.75,50.44103 -225.3765,65.0172 -343.1841,99.61476 -367.0067,107.78209 l -8.8819,3.04502 -108.6182,-0.126 c -68.036,-0.0789 -107.6841,-0.56041 -106.1182,-1.28871 2.0557,-0.95608 1.9446,-1.01586 -0.625,-0.33638 -1.7187,0.45449 -6.5,1.01909 -10.625,1.25467 -5.6333,0.32172 -6.8778,0.116 -5,-0.82634 2.177,-1.09256 2.0963,-1.15581 -0.625,-0.48956 -1.7187,0.42081 -6.5,1.03123 -10.625,1.35651 -5.8476,0.46112 -7.0869,0.27223 -5.625,-0.85735 1.5384,-1.18866 1.4262,-1.26764 -0.625,-0.43985 -1.375,0.5549 -16.2119,1.20153 -32.9708,1.43692 -25.748,0.36168 -30.20409,0.16362 -28.75,-1.27785 z m 447.9708,0.90179 c 0.6875,-0.25776 15.0313,-4.1918 31.875,-8.74231 24.761,-6.68941 158.7983,-44.55515 214.375,-60.56124 6.875,-1.97999 18.9688,-5.33506 26.875,-7.4557 23.1745,-6.21589 46.3091,-12.65456 54.375,-15.13325 4.125,-1.26763 10.0313,-2.91983 13.125,-3.67157 3.0938,-0.75174 9.2813,-2.46088 13.75,-3.79807 4.4688,-1.33722 15.1563,-4.46108 23.75,-6.94194 8.5938,-2.48086 20.6875,-6.07788 26.875,-7.99335 20.5607,-6.36505 25.4151,-7.75064 133.75,-38.17614 26.125,-7.33711 71.9688,-20.28871 101.875,-28.78131 29.9063,-8.4926 77.1563,-21.90371 105,-29.80248 27.8438,-7.89875 85.5,-24.31401 128.125,-36.47833 42.625,-12.16434 78.4844,-22.39213 79.6875,-22.72842 2.0494,-0.57285 2.1875,1.83393 2.1875,38.1327 l 0,38.74414 -3.4375,1.36218 c -1.8906,0.7492 -13.5625,3.64558 -25.9375,6.43641 -94.2958,21.26572 -382.3315,92.3219 -478.75,118.10389 -11.6875,3.1252 -33.625,8.51298 -48.75,11.97286 -15.125,3.45986 -48.0312,11.3632 -73.125,17.56296 -25.0937,6.19975 -56.0312,13.80416 -68.75,16.89869 -12.7187,3.09452 -26.7812,6.66074 -31.25,7.92491 -4.4687,1.26418 -18.1154,4.88441 -30.3257,8.04495 l -22.2008,5.74645 -87.1742,-0.0987 c -47.9459,-0.0543 -86.6118,-0.30958 -85.9243,-0.56734 z m 656.25,-0.61445 c 4.5071,-1.23143 63.7139,-14.47856 108.75,-24.33212 48.9504,-10.70996 155.6275,-34.67988 182.8125,-41.0772 l 7.8125,-1.83848 0,34.26414 0,34.26414 -151.5625,-0.12795 c -83.3594,-0.0704 -149.875,-0.58901 -147.8125,-1.15252 z"
       id="path3352"
       inkscape:connector-curvature="0" />
    <path
       style="fill:#030101"
       d="M 0,276.87994 0,0 1195.3125,0.09868421 c 793.6044,0.06551945 1194.0523,0.5161067 1191.5625,1.34075609 -2.0625,0.6831395 -13.0312,4.5499087 -24.375,8.5928207 -11.3437,4.042912 -56.9062,20.277665 -101.25,36.07723 -132.9477,47.368957 -210.9465,75.458179 -300,108.037299 -48.1056,17.59885 -79.2005,29.03984 -175.625,64.61907 -28.83,10.63785 -146.8294,54.91781 -198.125,74.34758 -24.3902,9.23853 -80.3872,31.6633 -106.25,42.54921 -20.1552,8.48356 -73.3592,30.27894 -122.5,50.18287 -64.3641,26.07005 -100.5362,40.67046 -106.25,42.88657 -3.0937,1.19991 -24.1675,9.62122 -46.8305,18.71404 -22.6631,9.09281 -49.9443,19.84432 -60.625,23.89226 -10.6807,4.04794 -25.3257,9.65545 -32.5445,12.46114 -7.2187,2.80568 -19.0312,7.26556 -26.25,9.91084 -7.2187,2.64528 -26.625,9.97383 -43.125,16.28566 -54.01194,20.66147 -62.3553,23.83319 -74.375,28.27358 -22.27631,8.22945 -31.8743,12.19074 -32.76689,13.52359 -0.62784,0.93749 -139.31951,1.42579 -468.4375,1.64924 L 0,553.75987 0,276.87994 Z m 827.90821,263.83738 c 5.61924,-2.35547 20.90429,-8.28691 33.96679,-13.18097 23.30095,-8.73005 32.98004,-13.79154 23.02395,-12.0399 -4.18066,0.73552 -25.40986,8.64464 -45.52395,16.96032 -4.8125,1.98962 -11,4.29473 -13.75,5.12249 -6.71819,2.0222 -11.875,4.71583 -11.875,6.20284 0,2.12809 3.6602,1.33579 14.15821,-3.06478 z M 430,541.25 c 0,-1.38889 -0.83334,-2.5 -1.875,-2.5 -1.04166,0 -1.875,1.11111 -1.875,2.5 0,1.38889 0.83334,2.5 1.875,2.5 1.04166,0 1.875,-1.11111 1.875,-2.5 z m 582.6042,12.05085 c 0.2864,-0.24704 2.2083,-0.82663 4.2708,-1.28798 2.7386,-0.61258 3.2443,-0.49662 1.875,0.43002 -1.688,1.14226 -7.4002,1.93969 -6.1458,0.85796 z M 1132.5,552.5 c 2.448,-1.582 4.1027,-1.582 3.125,0 -0.4249,0.6875 -1.7237,1.24139 -2.8863,1.23086 -1.8216,-0.0165 -1.8546,-0.18661 -0.2387,-1.23086 z m 15.625,0 c 2.0625,-0.52481 5.4375,-0.9647 7.5,-0.97751 3.6393,-0.0226 3.6577,0.006 0.625,0.97751 -1.7187,0.55044 -5.0937,0.99031 -7.5,0.97751 l -4.375,-0.0233 3.75,-0.95421 z m 19.375,-0.2707 c 7.401,-1.9976 195.8889,-64.49971 212.5,-70.46445 8.5938,-3.08586 23.7813,-8.38101 33.75,-11.76702 81.4573,-27.66791 129.4038,-44.76079 128.3926,-45.77188 -0.2537,-0.25371 -7.2779,1.78541 -15.6092,4.53137 -8.3314,2.74598 -15.8534,4.99268 -16.7156,4.99268 -3.2723,0 1.0676,-2.31769 10.1822,-5.43782 5.1563,-1.76511 20.9063,-7.19543 35,-12.06738 14.0938,-4.87196 30.125,-10.29166 35.625,-12.04379 5.5,-1.75212 14.5,-4.80989 20,-6.79501 5.5,-1.98514 20.125,-7.04549 32.5,-11.24521 12.375,-4.19974 25.3125,-8.65933 28.75,-9.9102 3.4375,-1.25089 19.4688,-6.87099 35.625,-12.48913 16.1563,-5.61814 35,-12.34452 41.875,-14.94752 6.875,-2.603 16.1563,-5.90972 20.625,-7.34826 4.4688,-1.43856 14.3125,-4.81297 21.875,-7.4987 40.6154,-14.42409 50.9956,-18.15708 61.25,-22.02688 6.1875,-2.33505 24.4688,-8.82161 40.625,-14.41459 16.1563,-5.59298 30.2188,-10.48268 31.25,-10.86601 2.0319,-0.75528 43.8284,-15.28679 75,-26.0755 10.6563,-3.6882 26.6875,-9.3204 35.625,-12.516 36.0118,-12.87596 151.845,-52.07717 284.375,-96.24046 l 79.375,-26.4503 0.4126,3.11325 c 0.2269,1.71229 -0.3356,3.63897 -1.25,4.28154 -1.3015,0.91453 -1.3232,1.30601 -0.1,1.8023 1.2128,0.49208 1.5625,11.62838 1.5625,49.74858 l 0,49.11459 -2.8125,0.0609 c -1.5468,0.0335 -28.4062,7.4764 -59.6875,16.5398 -78.945,22.87345 -125.4626,36.29187 -179.375,51.74231 -25.4375,7.28998 -49.0625,14.06326 -52.5,15.05174 -3.4375,0.98847 -14.6875,4.306 -25,7.37227 -10.3125,3.06628 -26.625,7.65204 -36.25,10.19056 -9.625,2.53854 -21.4375,5.69508 -26.25,7.01454 -4.8125,1.31946 -12.0122,3.22955 -15.9995,4.24465 -3.9872,1.0151 -8.8811,2.68941 -10.8753,3.72069 -1.9943,1.03127 -4.8822,1.87505 -6.4174,1.87505 -1.5353,0 -5.9225,1.07085 -9.7495,2.37967 -13.6965,4.68412 -23.7707,7.62033 -26.1453,7.62033 -3.5397,0 -26.3961,5.95178 -31.1136,8.102 -2.2279,1.01542 -7.8351,2.45081 -12.4606,3.18973 -4.6255,0.73893 -12.5484,3.00058 -17.6064,5.02589 -5.0579,2.0253 -10.4278,3.68238 -11.9329,3.68238 -1.5051,0 -4.8371,1.12585 -7.4045,2.50188 -2.5674,1.37604 -4.9542,2.47642 -5.3042,2.44529 -3.1953,-0.28425 -26.9978,5.61005 -43.1158,10.67689 -23.475,7.37957 -26.2704,8.05936 -30.0411,7.30522 -2.8387,-0.56777 -4.8126,-0.0835 -7.3722,1.80906 -1.9227,1.42142 -5.6818,2.97678 -8.3537,3.45636 -2.6719,0.47957 -5.7479,1.64607 -6.8354,2.59222 -1.9741,1.7174 -14.6917,4.6091 -17.6894,4.02218 -3.0693,-0.60095 -10.7262,1.53025 -12.2968,3.42266 -1.1625,1.40067 -2.8509,1.70254 -6.2814,1.12297 -3.9086,-0.66037 -4.9182,-0.36892 -6.0505,1.74663 -1.5947,2.97987 -8.411,5.12901 -16.3295,5.14864 -3.0937,0.007 -7.5937,0.50483 -10,1.10481 -2.4062,0.59999 -7.75,1.84259 -11.875,2.76135 -4.125,0.91875 -10.4425,3.23722 -14.0388,5.15215 -3.5964,1.91492 -8.237,3.48169 -10.3125,3.48169 -2.0755,0 -3.7737,0.4495 -3.7737,0.99888 0,1.22064 -7.3932,3.99425 -10.7137,4.0193 -1.3261,0.01 -4.9425,0.90294 -8.0363,1.98428 -3.0937,1.08135 -8.7105,2.47146 -12.4815,3.08914 -3.7711,0.61767 -8.4066,2.26903 -10.3011,3.66968 -1.8945,1.40065 -5.2777,2.894 -7.5184,3.31857 -2.2407,0.42456 -4.6365,1.17772 -5.324,1.67368 -1.561,1.1261 -6.7862,2.39454 -13.554,3.29028 -2.8577,0.37824 -6.4683,1.49675 -8.0235,2.48557 -1.5551,0.98883 -4.9301,1.8485 -7.5,1.91038 -2.5698,0.0619 -5.7975,0.79579 -7.1725,1.63092 -3.693,2.24303 -7.5327,2.98514 -9.5638,1.84847 -1.0449,-0.58478 -4.8498,0.004 -9.1128,1.41055 -4.0254,1.32797 -10.2982,2.6607 -13.9399,2.96161 -3.6415,0.30091 -7.6362,1.06996 -8.8772,1.70899 -1.2409,0.63903 -2.948,0.91355 -3.7935,0.61002 -0.8456,-0.30352 -3.9394,1.14329 -6.875,3.21514 -3.3098,2.33576 -7.7124,4.09431 -11.5878,4.62845 -3.4375,0.4738 -6.9501,1.41937 -7.8058,2.1013 -0.8557,0.68191 -2.7829,0.91895 -4.2828,0.52675 -2.667,-0.69744 -9.7864,2.50744 -9.7864,4.40545 0,2.82567 -19.1901,8.70124 -29.375,8.99391 -2.75,0.079 -5.6467,0.56391 -6.4372,1.07754 -0.7905,0.51362 -2.7593,0.92746 -4.375,0.91964 -1.6158,-0.008 -6.3128,0.556 -10.4378,1.25295 -4.125,0.69695 -8.3437,1.35257 -9.375,1.45693 -1.0312,0.10438 -2.1562,0.52738 -2.5,0.94003 -0.6312,0.75772 -13.9981,4.68455 -20.2722,5.9554 -1.8685,0.37847 -4.0468,1.4707 -4.8406,2.42716 -0.7938,0.95646 -2.7474,1.73903 -4.3414,1.73903 -1.594,0 -3.2459,0.5625 -3.6708,1.25 -0.4248,0.6875 -1.8363,1.25 -3.1366,1.25 -1.3002,0 -2.9291,0.98437 -3.6197,2.1875 -1.1942,2.0807 -1.4497,2.07878 -5.2314,-0.039 -4.5468,-2.54625 -6.1076,-1.88973 -3.9024,1.64141 2.0924,3.35044 1.9461,3.71011 -1.5076,3.71011 -3.9995,0 -7.12,1.25766 -6.3225,2.54811 0.3522,0.56988 -0.8898,0.87302 -2.7599,0.67363 -1.87,-0.19938 -3.6146,-1.00584 -3.8766,-1.79213 -0.8109,-2.43257 -2.4593,-1.58095 -3.2815,1.69539 -0.8208,3.26975 -3.8649,4.24991 -4.8529,1.5625 -0.4342,-1.18152 -1.5511,-1.02914 -4.5804,0.625 -2.2033,1.20313 -5.3336,2.1875 -6.956,2.1875 -1.6225,0 -3.265,0.50969 -3.65,1.13265 -0.385,0.62296 -1.8243,0.8386 -3.1987,0.47921 -1.7374,-0.45433 -2.4988,-0.0376 -2.4988,1.36736 0,1.11143 -0.8437,2.02078 -1.875,2.02078 -1.0312,0 -1.875,0.4495 -1.875,0.99889 0,1.21144 -6.3577,3.46116 -12.9952,4.59846 -2.6786,0.45898 -6.0536,1.5838 -7.5,2.49961 -1.4464,0.91583 -5.5834,2.05277 -9.1934,2.52654 -3.6177,0.47479 -6.2356,1.39223 -5.8329,2.04406 0.4362,0.70563 -0.6258,0.8421 -2.6328,0.33835 -2.2647,-0.56836 -3.7224,-0.27836 -4.4607,0.8874 -0.79,1.24729 -1.1021,1.29462 -1.1158,0.16919 -0.012,-0.85937 -1.1442,-1.5625 -2.5192,-1.5625 -3.3182,0 -3.1535,-1.45032 0.5614,-4.94025 3.5253,-3.31177 6.9386,-2.67975 6.9386,1.28475 0,1.92385 0.5542,2.46033 1.9773,1.91424 1.0875,-0.41731 2.5696,-0.75874 3.2935,-0.75874 0.724,0 -0.1658,-1.16582 -1.9771,-2.59072 -4.1118,-3.23424 -4.1944,-4.90928 -0.2424,-4.90928 1.6781,0 3.3787,-0.53 3.7791,-1.17777 0.4004,-0.64778 3.3866,-1.52564 6.6363,-1.95079 3.2496,-0.42515 9.4926,-2.2376 13.8733,-4.02768 6.8188,-2.78627 8.3373,-3.02217 10.5519,-1.63915 2.2863,1.42783 2.9276,1.2193 5.5204,-1.79491 2.0336,-2.36432 4.5484,-3.61619 8.1981,-4.0812 2.8955,-0.36892 8.8706,-2.28696 13.278,-4.26232 4.4074,-1.97535 11.1574,-3.93867 15,-4.36292 3.8426,-0.42425 8.7395,-1.82414 10.8819,-3.11091 4.2106,-2.52897 18.287,-7.33056 21.5801,-7.36117 2.3928,-0.0223 9.6445,-2.54909 13.505,-4.70583 1.5016,-0.83895 3.5919,-1.52535 4.645,-1.52535 1.0531,0 3.9026,-0.94793 6.3323,-2.10651 3.1776,-1.51531 4.4173,-2.9186 4.4173,-5 0,-3.36054 -1.2652,-3.52172 -9.1102,-1.16071 -3.1666,0.95302 -6.0264,1.46389 -6.3551,1.13525 -0.8615,-0.86159 -9.5347,2.44321 -9.5347,3.63309 0,0.54938 -2.2167,0.99888 -4.9262,0.99888 -2.7094,0 -5.227,0.48663 -5.5945,1.08138 -0.3676,0.59476 -4.1978,1.74642 -8.5113,2.55926 -7.605,1.43303 -31.1291,8.31109 -41.8802,12.24506 -2.9644,1.08468 -4.9389,2.49834 -4.4944,3.21763 0.4865,0.78715 0.1676,0.89653 -0.8249,0.28307 -1.5792,-0.976 -51.2041,14.66079 -62.0303,19.54575 -2.8254,1.27482 -6.0333,2.31785 -7.1288,2.31785 -1.0955,0 -3.2839,0.5308 -4.863,1.17955 -7.4874,3.07585 -33.2556,10.40398 -36.3089,10.32574 -1.8906,-0.0484 -3.4375,0.40451 -3.4375,1.00658 0,0.60204 -13.0781,1.05046 -29.0625,0.99646 -20.6518,-0.0697 -27.7964,-0.43991 -24.6875,-1.27903 z m 274.2381,-60.84946 c 2.8253,-1.30359 7.6681,-3.05938 10.7619,-3.90175 3.0938,-0.84238 6.9961,-1.92034 8.6719,-2.39547 1.6757,-0.47513 3.2975,-1.61569 3.6037,-2.53459 0.7553,-2.26569 -5.8516,-1.12123 -20.4006,3.53387 -7.4374,2.37964 -11.387,4.28896 -11.6541,5.63381 -0.5413,2.7244 2.6415,2.60585 9.0172,-0.33587 z m 38.2227,-12.50224 c 3.0721,-0.62801 5.7908,-1.75738 6.0416,-2.50971 0.2507,-0.75234 2.0633,-1.36789 4.028,-1.36789 1.9646,0 3.9221,-0.56647 4.3501,-1.25883 1.211,-1.95945 -3.1906,-3.05501 -5.7791,-1.43845 -1.2746,0.796 -3.9524,1.44728 -5.9506,1.44728 -1.9984,0 -3.9355,0.78769 -4.305,1.75043 -0.3694,0.96272 -2.9579,2.13667 -5.7522,2.60876 -2.7942,0.47209 -5.4521,1.45969 -5.9063,2.19466 -0.8324,1.34674 0.3073,1.22426 13.2735,-1.42625 z m 26.4487,-8.46341 c 1.5589,-1.8954 1.3304,-2.00952 -2.5032,-1.25 -2.3203,0.4597 -4.9922,0.83581 -5.9375,0.83581 -0.9453,0 -1.7188,0.5625 -1.7188,1.25 0,2.09941 8.3074,1.41596 10.1595,-0.83581 z m 50.403,-50.53035 c 0.741,-0.70749 0.6084,-1.13384 -0.3526,-1.13384 -1.9284,0 -10.2099,3.41521 -10.2099,4.21046 0,0.89703 9.2106,-1.78582 10.5625,-3.07662 z m 40.0625,-13.62124 c 2.1758,-0.90545 3.0734,-1.81105 2.1381,-2.15721 -1.5902,-0.58865 -21.0477,6.55862 -23.2972,8.5577 -1.2289,1.09217 14.821,-3.76282 21.1591,-6.40049 z m 37.2269,-12.55575 c 4.2752,-1.39873 8.8981,-3.05133 10.2731,-3.67244 1.375,-0.62111 7,-2.63082 12.5,-4.46602 10.8043,-3.60507 17.4109,-6.70363 14.375,-6.74198 -1.0312,-0.013 -5.8125,1.41506 -10.625,3.17354 -4.8125,1.75846 -14.375,5.16814 -21.25,7.57705 -6.875,2.4089 -13.0344,4.89579 -13.6875,5.52641 -1.7431,1.68312 -0.2319,1.43229 8.4144,-1.39656 z M 1700.625,370 c 2.4103,-1.03574 2.4018,-1.07744 -0.2387,-1.16214 -1.5063,-0.0484 -3.0864,0.47464 -3.5113,1.16214 -0.9137,1.47847 0.3094,1.47847 3.75,0 z M 1760,348.78922 c 0,-0.66591 -0.8437,-0.88698 -1.875,-0.49126 -1.0312,0.39574 -1.875,0.94058 -1.875,1.21078 0,0.27019 0.8438,0.49126 1.875,0.49126 1.0313,0 1.875,-0.54485 1.875,-1.21078 z m 12.0548,-4.78186 c -1.2762,-0.2705 -2.8658,0.0536 -3.5323,0.72019 -0.7827,0.78267 0.039,0.95689 2.3202,0.49183 2.6162,-0.53342 2.9305,-0.84774 1.212,-1.21202 z m 7.6067,-2.26257 c -0.4154,-0.41536 -1.4935,-0.45977 -2.3959,-0.0986 -0.9971,0.39903 -0.701,0.69523 0.7553,0.7552 1.3176,0.0542 2.056,-0.24116 1.6406,-0.65652 z m 26.974,-8.60025 c 4.7042,-1.96557 6.393,-3.82917 2.427,-2.67818 -1.2031,0.34916 -4.5781,1.2525 -7.5,2.00741 -2.9219,0.75493 -5.3125,1.97439 -5.3125,2.70992 0,1.51898 3.527,0.82646 10.3855,-2.03915 z m 20.5051,-7.10208 c 3.9789,-1.48915 6.6472,-2.90366 5.9294,-3.14336 -0.7179,-0.23969 -4.6554,0.95492 -8.75,2.65471 -9.2006,3.81929 -7.0665,4.189 2.8206,0.48865 z M 1841.25,321.25 c 1.5526,-1.00339 1.4451,-1.21171 -0.625,-1.21171 -1.375,0 -3.3437,0.54526 -4.375,1.21171 -1.5526,1.00339 -1.4451,1.21171 0.625,1.21171 1.375,0 3.3438,-0.54526 4.375,-1.21171 z m 12.2685,-4.32029 c 3.6539,-1.20142 6.3623,-2.46567 6.0185,-2.80942 -0.8336,-0.83355 -13.5735,3.34027 -15.162,4.96733 -0.8431,0.86356 -0.6396,1.07626 0.625,0.65342 1.0313,-0.34479 4.8646,-1.60989 8.5185,-2.81133 z M 1865.625,312.5 c 1.6484,-0.70835 1.8614,-1.09769 0.625,-1.143 -1.0312,-0.0378 -2.7187,0.47655 -3.75,1.143 -2.285,1.47665 -0.3114,1.47665 3.125,0 z m 55.625,-18.75 c 1.0313,-0.66645 1.3125,-1.21171 0.625,-1.21171 -0.6875,0 -2.0937,0.54526 -3.125,1.21171 -1.0312,0.66645 -1.3125,1.21171 -0.625,1.21171 0.6875,0 2.0938,-0.54526 3.125,-1.21171 z m 44.6383,-15.77848 c -0.7607,-0.76055 -5.8883,1.10953 -5.8883,2.14747 0,0.59257 1.4086,0.4356 3.1302,-0.34884 1.7218,-0.78444 2.9628,-1.59381 2.7581,-1.79862 z m 16.9242,-5.04937 c -0.8594,-0.34676 -2.2656,-0.34676 -3.125,0 -0.8594,0.34676 -0.1562,0.63049 1.5625,0.63049 1.7188,0 2.4219,-0.28373 1.5625,-0.63049 z m 17.8526,-5.98336 c 2.3843,-0.99618 4.3349,-2.09192 4.3349,-2.43498 0,-0.84558 -7.8261,1.81576 -9.3125,3.16679 -1.745,1.58611 0.068,1.31956 4.9776,-0.73181 z M 2024.375,258.75 c 1.6484,-0.70835 1.8614,-1.09769 0.625,-1.143 -1.0312,-0.0378 -2.7187,0.47655 -3.75,1.143 -2.285,1.47665 -0.3114,1.47665 3.125,0 z m 81.9754,294.5528 c 0.3988,-0.43735 5.4613,-1.33001 11.25,-1.9837 5.7885,-0.65369 15.0246,-2.25634 20.5246,-3.56144 14.3501,-3.40516 45.9773,-10.5208 75.625,-17.01448 49.1763,-10.77098 89.716,-19.69539 137.1019,-30.18155 C 2377.1016,494.75274 2398.8985,490 2399.2894,490 c 0.3908,0 0.7106,14.34375 0.7106,31.875 l 0,31.875 -125.625,0 c -82.9166,0 -125.625,-0.42496 -125.625,-1.25 0,-0.6875 -1.1582,-1.25 -2.5737,-1.25 -1.4157,0 -2.2262,0.5625 -1.8013,1.25 0.4249,0.6875 -0.4189,1.25 -1.875,1.25 -1.571,0 -2.3096,-0.54677 -1.8165,-1.34469 0.5693,-0.92101 -1.0814,-1.13722 -5.2387,-0.68622 -13.2232,1.4345 -29.7804,2.33577 -29.0944,1.58371 z M 1370.625,480 c 0.4249,-0.6875 1.6162,-1.25 2.6475,-1.25 1.0313,0 1.5274,0.5625 1.1025,1.25 -0.4249,0.6875 -1.6162,1.25 -2.6475,1.25 -1.0312,0 -1.5274,-0.5625 -1.1025,-1.25 z m 11.875,-3.75 c 1.0313,-0.66645 2.4375,-1.21171 3.125,-1.21171 0.6875,0 0.4063,0.54526 -0.625,1.21171 -1.0312,0.66645 -2.4375,1.21171 -3.125,1.21171 -0.6875,0 -0.4062,-0.54526 0.625,-1.21171 z m 10,-3.75 c 1.0313,-0.66645 2.7188,-1.1808 3.75,-1.143 1.2364,0.0452 1.0234,0.43465 -0.625,1.143 -3.4364,1.47665 -5.41,1.47665 -3.125,0 z M 1415,465 c 1.0313,-0.66645 2.7188,-1.1808 3.75,-1.143 1.2364,0.0452 1.0234,0.43465 -0.625,1.143 -3.4364,1.47665 -5.41,1.47665 -3.125,0 z m 13.9,-4.3167 c 1.552,-1.55199 43.7656,-15.93439 44.5288,-15.1712 0.6148,0.61484 -11.1972,5.10506 -25.3038,9.61899 -6.875,2.19991 -13.0344,4.47662 -13.6875,5.05937 -1.1966,1.06768 -6.5925,1.54792 -5.5375,0.49284 z m 53.2666,-18.33841 c 0.848,-0.85428 1.8567,-1.23834 2.2415,-0.85348 0.3848,0.38487 -0.309,1.08382 -1.5417,1.55323 -1.7815,0.67835 -1.925,0.53477 -0.6998,-0.69975 z m 14.7084,-5.49349 c 7.4319,-2.94541 11.8539,-3.91355 10.166,-2.22574 -1.0212,1.0212 -14.5747,5.37048 -16.416,5.26784 -0.6875,-0.0384 2.125,-1.40727 6.25,-3.0421 z m -104.6094,-22.70529 c 0.9024,-0.36108 1.9805,-0.31668 2.3959,0.0986 0.4154,0.41536 -0.323,0.7108 -1.6406,0.65652 -1.4563,-0.06 -1.7524,-0.35617 -0.7553,-0.7552 z m 36.6694,-7.24776 c 0.3309,-0.3309 6.7527,-2.88929 14.2707,-5.68531 7.5182,-2.79601 15.4418,-5.90028 17.6082,-6.89835 2.1665,-0.99808 4.6977,-1.77495 5.625,-1.72639 2.3998,0.12568 -7.3255,4.32348 -23.2114,10.01885 -13.6233,4.88416 -15.4271,5.42575 -14.2925,4.2912 z M 1545,398.75 c 2.448,-1.582 4.1028,-1.582 3.125,0 -0.4249,0.6875 -1.7237,1.24139 -2.8862,1.23086 -1.8217,-0.0165 -1.8547,-0.18661 -0.2388,-1.23086 z m 7.5,-2.5 c 1.0313,-0.66645 2.7188,-1.1808 3.75,-1.143 1.2364,0.0452 1.0234,0.43465 -0.625,1.143 -3.4364,1.47665 -5.41,1.47665 -3.125,0 z m 556.2469,-1.25192 c -1.293,-0.79909 -0.7924,-1.30381 1.9433,-1.95955 2.0267,-0.48579 4.2795,-1.3471 5.0064,-1.91403 0.7269,-0.56694 4.3831,-1.85361 8.125,-2.85927 3.7419,-1.00568 10.1784,-2.93074 14.3034,-4.27792 8.0028,-2.61361 14.9093,-4.67096 31.875,-9.49519 9.7043,-2.75941 23.62,-7.24666 33.125,-10.68147 2.0625,-0.74532 13.5862,-4.21898 25.6084,-7.71921 12.022,-3.50024 22.9752,-7.14649 24.3406,-8.10277 2.3085,-1.61693 2.1536,-1.73867 -2.211,-1.73867 -2.5814,0 -6.5034,0.75482 -8.7156,1.67737 -2.2124,0.92257 -7.9599,2.40354 -12.7724,3.29107 -4.8125,0.88752 -9.7873,2.14951 -11.0549,2.80441 -1.2676,0.6549 -5.1894,1.45869 -8.715,1.78616 -3.5255,0.32749 -7.1425,1.20335 -8.0379,1.94635 -1.0138,0.84148 -5.0338,1.09687 -10.66,0.67724 -6.9477,-0.51821 -9.4186,-0.25541 -10.7065,1.13876 -2.1883,2.36891 -4.2431,1.60074 -4.759,-1.77912 -0.3417,-2.24015 0.4914,-2.94272 4.8857,-4.11939 6.317,-1.6916 17.9512,-5.05563 46.5476,-13.4593 11.6875,-3.43463 48.25,-13.89376 81.25,-23.24254 33,-9.34876 66.888,-18.96048 75.3066,-21.35939 8.4188,-2.39888 15.5907,-4.36162 15.9375,-4.36162 1.4749,0 0.5749,17.31427 -0.9316,17.92215 -1.25,0.50439 -1.25,0.65021 0,0.72916 1.1482,0.0725 1.5625,3.70404 1.5625,13.69564 0,15.15492 -0.4169,16.02891 -8.4604,17.73857 -2.5655,0.54532 -8.3208,1.89198 -12.7896,2.99257 -13.847,3.41033 -18.07,4.21721 -19.015,3.63315 -0.5014,-0.30988 -2.743,0.38368 -4.9815,1.54125 -2.426,1.25448 -6.859,2.0851 -10.9743,2.05626 -4.0283,-0.0282 -8.1266,0.72371 -9.8388,1.80522 -1.614,1.01949 -7.8015,2.35157 -13.75,2.96015 -5.9484,0.6086 -13.0654,1.67122 -15.8154,2.36139 -2.75,0.69016 -6.8281,1.26826 -9.0625,1.28466 -3.3114,0.0244 -4.0625,-0.45868 -4.0625,-2.6121 0,-2.44027 -0.4532,-2.57567 -5.9375,-1.77393 -3.2656,0.47739 -8.4688,1.60911 -11.5625,2.51491 -4.5326,1.32711 -58.7516,14.79628 -83.75,20.80532 -3.0937,0.74368 -11.8125,2.96007 -19.375,4.92533 -34.1934,8.88577 -58.4791,13.2691 -61.8781,11.16838 z m 153.0067,-48.43558 c 0.5062,-0.51563 3.2718,-1.628 6.1459,-2.47194 l 5.2255,-1.53445 -6.0972,0.6975 c -7.4453,0.85169 -9.7282,1.66097 -8.8218,3.12737 0.8434,1.36463 2.3125,1.4398 3.5476,0.18152 z m -815.738,47.58361 c 0.9024,-0.36108 1.9805,-0.31668 2.3959,0.0986 0.4154,0.41536 -0.323,0.7108 -1.6406,0.65652 -1.4563,-0.06 -1.7524,-0.35617 -0.7553,-0.7552 z m 123.3594,-4.03314 c 9.0161,-3.6143 16.8381,-5.90938 15.4669,-4.53821 -1.0208,1.02083 -21.3251,8.1943 -22.9566,8.11054 -0.6932,-0.0356 2.6772,-1.64314 7.4897,-3.57233 z M 1453.75,391.25 c 2.448,-1.582 4.1028,-1.582 3.125,0 -0.4249,0.6875 -1.7237,1.24139 -2.8862,1.23086 -1.8217,-0.0165 -1.8547,-0.18661 -0.2388,-1.23086 z m 18.5156,-0.85389 c 0.9024,-0.36108 1.9805,-0.31668 2.3959,0.0986 0.4154,0.41536 -0.323,0.7108 -1.6406,0.65652 -1.4563,-0.06 -1.7524,-0.35617 -0.7553,-0.7552 z M 1486.875,385 c 3.4364,-1.47665 5.41,-1.47665 3.125,0 -1.0312,0.66645 -2.7187,1.1808 -3.75,1.143 -1.2364,-0.0452 -1.0234,-0.43465 0.625,-1.143 z m 100.625,-1.25 c 1.0313,-0.66645 2.4375,-1.21171 3.125,-1.21171 0.6875,0 0.4063,0.54526 -0.625,1.21171 -1.0312,0.66645 -2.4375,1.21171 -3.125,1.21171 -0.6875,0 -0.4062,-0.54526 0.625,-1.21171 z m -88.8734,-3.19311 c 2.3384,-1.0149 4.5259,-1.57112 4.8609,-1.23605 0.6993,0.6992 -5.4067,3.20372 -7.6314,3.13024 -0.8146,-0.0269 0.4322,-0.87931 2.7705,-1.89419 z m 98.4507,-0.54711 c 2.8612,-1.2725 10.1737,-4.01423 16.25,-6.09274 6.0762,-2.0785 13.2977,-4.60421 16.0477,-5.61266 2.75,-1.00847 19.0625,-7.01552 36.25,-13.34899 17.1875,-6.33348 32.6563,-11.96603 34.375,-12.51677 1.7188,-0.55073 5.9375,-2.09213 9.375,-3.42533 11.282,-4.3756 33.3566,-12.46127 56.875,-20.83263 12.7188,-4.52724 30.1563,-10.82772 38.75,-14.00109 8.5938,-3.17337 21.25,-7.67476 28.125,-10.0031 6.875,-2.32833 14.4688,-5.03898 16.875,-6.02367 6.3977,-2.61811 78.0558,-27.95315 115,-40.65881 17.5313,-6.02927 44.8125,-15.59782 60.625,-21.26345 15.8125,-5.66565 38.0313,-13.54912 49.375,-17.51882 11.3438,-3.96971 41.4375,-14.62047 66.875,-23.66837 25.4375,-9.0479 51.875,-18.32219 58.75,-20.60953 6.875,-2.28733 19.8125,-6.77232 28.75,-9.96663 20.2283,-7.22968 56.4504,-19.7559 87.1508,-30.13814 21.0615,-7.12259 29.5233,-10.43214 26.9515,-10.54104 -1.2639,-0.0535 -32.004,10.18678 -134.7273,44.88084 -49.1562,16.60219 -98.375,33.22332 -109.375,36.93586 -66.9551,22.59756 -117.873,40.30083 -160,55.62921 -11.6875,4.25264 -29.9687,10.73832 -40.625,14.41263 -46.4315,16.00972 -73.6011,25.50652 -80,27.96295 -7.1211,2.73373 -12.505,3.64721 -8.75,1.48463 1.0313,-0.59393 9.75,-3.91748 19.375,-7.38568 9.625,-3.46819 26.7813,-9.75188 38.125,-13.96374 33.5343,-12.45108 67.293,-24.53585 101.25,-36.24491 17.5313,-6.04514 37.5,-13.05087 44.375,-15.5683 6.875,-2.51743 21.7813,-7.84791 33.125,-11.84554 32.7919,-11.55614 62.7879,-22.26679 84.375,-30.1278 11,-4.00567 36.2436,-13.06415 56.097,-20.12994 19.8534,-7.06578 35.524,-13.03791 34.8236,-13.27136 -0.7003,-0.23346 -4.5691,0.76997 -8.597,2.22984 -4.028,1.45987 -15.4798,5.39704 -25.4486,8.74925 -9.9687,3.35221 -35.5625,12.06706 -56.875,19.36634 -21.3125,7.29928 -52.5312,17.95212 -69.375,23.67297 -38.5314,13.08693 -77.3831,26.88283 -116.25,41.27936 -19.8345,7.34682 -28.6921,10.49827 -87.5,31.13138 -26.4687,9.28673 -57.644,20.28566 -69.2782,24.44208 -11.6343,4.15641 -21.4179,7.29243 -21.7414,6.96893 -0.3235,-0.32348 0.4767,-0.93251 1.7782,-1.35337 3.1949,-1.03311 21.306,-7.78071 26.7414,-9.96298 7.6459,-3.06973 59.6748,-22.11682 93.75,-34.32063 9.2813,-3.32402 23.3438,-8.37698 31.25,-11.22883 21.2079,-7.64981 27.9169,-10.05155 57.5,-20.58402 14.7813,-5.26258 29.6875,-10.66438 33.125,-12.004 3.4375,-1.33963 16.6563,-6.11337 29.375,-10.60832 12.7188,-4.49495 25.9375,-9.24 29.375,-10.54455 3.4375,-1.30455 18.3438,-6.68168 33.125,-11.9492 14.7813,-5.26751 33.9063,-12.14576 42.5,-15.28498 8.5938,-3.13924 17.875,-6.41658 20.625,-7.28298 2.75,-0.8664 13.1563,-4.46641 23.125,-8.00001 9.9688,-3.53361 45.6875,-15.97744 79.375,-27.65297 75.0549,-26.012767 95.5284,-33.127812 115.625,-40.182547 l 15.625,-5.485007 0.4221,3.17464 c 0.2323,1.746053 -0.1896,3.378589 -0.9375,3.627859 -0.7477,0.24927 -1.3596,1.00204 -1.3596,1.672823 0,0.670782 0.5625,0.871961 1.25,0.447062 0.7439,-0.459754 1.25,1.028686 1.25,3.676229 0,2.446824 -0.5625,4.448771 -1.25,4.448771 -0.6875,0 -1.25,0.595698 -1.25,1.323771 0,0.728074 0.5625,0.976128 1.25,0.551229 0.7878,-0.486827 1.25,2.452298 1.25,7.94706 0,5.8061 -0.5221,8.93027 -1.5625,9.35009 -1.25,0.50439 -1.25,0.65022 0,0.72917 0.8675,0.0548 1.5625,1.70841 1.5625,3.71751 l 0,3.61883 -29.6875,9.6638 c -16.3281,5.31509 -102.8125,34.00603 -192.1875,63.75763 -191.3335,63.69207 -232.0672,77.06539 -232.7261,76.40645 -0.4473,-0.44728 5.932,-3.0495 17.1011,-6.97591 2.4063,-0.84589 9.7188,-3.50302 16.25,-5.90472 6.5313,-2.40171 13.4764,-4.8647 15.4336,-5.47331 1.9573,-0.60861 4.2073,-1.62314 5,-2.2545 0.7928,-0.63136 4.2539,-1.99547 7.6914,-3.03136 3.4375,-1.03589 10.75,-3.58104 16.25,-5.6559 5.5,-2.07486 11.9688,-4.475 14.375,-5.33365 2.4063,-0.85866 6.0188,-2.14766 8.0276,-2.86446 2.009,-0.7168 3.0773,-1.49512 2.3739,-1.72958 -1.1345,-0.37815 -44.1355,13.26363 -80.4015,25.50678 -15.83,5.34412 -38.4866,13.80471 -41.7145,15.57738 -1.2867,0.70664 -4.6617,2.03962 -7.5,2.96218 -2.8382,0.92256 -13.3167,4.54096 -23.2855,8.04089 -9.9687,3.49992 -20.9375,7.23241 -24.375,8.29443 -3.4375,1.06202 -9.9062,3.24442 -14.375,4.84978 -4.4687,1.60535 -12.3437,4.3245 -17.5,6.04253 -9.2956,3.09727 -40.3872,13.76463 -82.5,28.30533 -12.0312,4.15415 -28.9062,9.87614 -37.5,12.71552 -8.5937,2.83941 -16.75,5.63824 -18.125,6.21964 -4.8419,2.04734 -18.0651,6.1427 -19.6481,6.08519 -0.881,-0.032 1.2106,-1.52662 4.6481,-3.32135 10.2245,-5.33825 4.437,-4.66496 -13.9795,1.6263 -20.1114,6.87024 -48.5205,16.66122 -48.5205,16.72221 0,0.0231 -6.4687,2.28713 -14.375,5.03104 -15.1624,5.2622 -20.388,6.38576 -11.6727,2.50977 z m 108.5961,-33.44728 c 8.441,-3.60496 10.8535,-5.93439 4.157,-4.01386 -6.4039,1.8366 -15.3685,5.28825 -16.6429,6.40796 -2.6085,2.29193 4.8721,0.85756 12.4859,-2.3941 z m 20.9285,-7.9284 c 7.3774,-2.48274 12.4356,-4.7633 10.7485,-4.84609 -1.4121,-0.0693 -16.1463,4.86252 -18.3299,6.13538 -3.3906,1.97639 -0.8269,1.54038 7.5814,-1.28929 z M 1741.25,332.5 c 0,-0.6875 -0.248,-1.25 -0.5512,-1.25 -0.3032,0 -0.8989,0.5625 -1.3238,1.25 -0.4249,0.6875 -0.1769,1.25 0.5513,1.25 0.728,0 1.3237,-0.5625 1.3237,-1.25 z m 220,-76.96636 c 3.1041,-1.86521 3.0958,-1.87233 -1.25,-1.06225 -6.0469,1.12718 -9.1481,2.95465 -5,2.94631 1.7188,-0.004 4.5313,-0.85129 6.25,-1.88406 z m 7.5,-3.03364 c 1.6159,-1.04425 1.5829,-1.21436 -0.2387,-1.23086 -1.1626,-0.01 -2.4614,0.54336 -2.8863,1.23086 -0.9777,1.582 0.677,1.582 3.125,0 z m 21.875,-7.3976 c 5.5,-2.11384 10.8438,-3.86326 11.875,-3.88763 1.0313,-0.0244 3,-0.92832 4.375,-2.00881 2.4299,-1.90946 2.4124,-1.94031 -0.625,-1.10067 -1.7187,0.47511 -7.6657,2.50204 -13.2156,4.50427 -5.5499,2.00224 -10.6454,3.64044 -11.3236,3.64044 -0.6782,0 -2.3248,0.8855 -3.6594,1.96778 -2.3936,1.9412 -2.3926,1.9594 0.074,1.34786 1.375,-0.34095 7,-2.3494 12.5,-4.46324 z m 245,-102.69231 c 5.1455,-2.47448 2.1174,-2.04092 -5.625,0.8054 -2.6631,0.97903 -3.3967,1.60655 -1.875,1.60372 1.375,-0.002 4.75,-1.08665 7.5,-2.40912 z m 21.875,-7.51912 c 3.8395,-1.68551 4.4785,-2.23705 2.013,-1.73755 -4.6926,0.95074 -11.9444,4.13312 -9.513,4.17477 1.0313,0.0176 4.4063,-1.07908 7.5,-2.43722 z m 24.303,-8.5244 c 0.3852,-0.62338 -0.4254,-0.83902 -1.8012,-0.47921 -2.9188,0.76326 -3.2878,1.61264 -0.7006,1.61264 0.9907,0 2.1164,-0.51004 2.5018,-1.13343 z m 70.072,-14.44643 c 4.8276,-2.21051 2.5821,-2.24294 -3.125,-0.0451 -2.4062,0.92664 -3.5312,1.70222 -2.5,1.72352 1.0313,0.0213 3.5625,-0.73398 5.625,-1.67838 z M 2330,110 c 1.0313,-0.66645 1.3125,-1.21172 0.625,-1.21172 -0.6875,0 -2.0937,0.54527 -3.125,1.21172 -1.0312,0.66645 -1.3125,1.21172 -0.625,1.21172 0.6875,0 2.0938,-0.54527 3.125,-1.21172 z m 34.2906,-2.56664 c 0.6726,-0.65762 -0.5889,-0.63652 -2.9822,0.0499 -2.2814,0.65429 -4.4934,1.56735 -4.9156,2.02903 -1.1574,1.26545 6.5532,-0.76417 7.8978,-2.07891 z M 2344.375,105 c 1.6484,-0.70835 1.8614,-1.09769 0.625,-1.143 -1.0312,-0.0378 -2.7187,0.47656 -3.75,1.143 -2.285,1.47665 -0.3114,1.47665 3.125,0 z m 31.875,-1.25 c 2.285,-1.47665 0.3114,-1.47665 -3.125,0 -1.6484,0.70835 -1.8614,1.09769 -0.625,1.143 1.0313,0.0378 2.7188,-0.47656 3.75,-1.143 z m 7.5,-2.5 c 2.285,-1.476653 0.3114,-1.476653 -3.125,0 -1.6484,0.70835 -1.8614,1.09769 -0.625,1.143 1.0313,0.0378 2.7188,-0.47656 3.75,-1.143 z m -874.8959,275.76481 c 0.7075,-0.65909 22.4502,-9.37964 39.2709,-15.75079 7.5625,-2.86443 17.4063,-6.62321 21.875,-8.35283 4.4688,-1.72963 11.7813,-4.44773 16.25,-6.04023 4.4688,-1.5925 13.4688,-4.973 20,-7.51221 6.5313,-2.53923 13.2813,-5.08881 15,-5.66575 3.372,-1.1319 13.9829,-5.13359 46.25,-17.44235 36.7568,-14.02139 40.6816,-15.45788 175.625,-64.27728 56.375,-20.39517 109.25,-39.56433 117.5,-42.59812 8.25,-3.0338 23.7188,-8.69431 34.375,-12.57893 10.6563,-3.88461 23.875,-8.72277 29.375,-10.75146 5.5,-2.0287 14.5,-5.31252 20,-7.2974 5.5,-1.98487 22.375,-8.16066 37.5,-13.72399 15.125,-5.56332 35.0938,-12.86485 44.375,-16.22562 9.2813,-3.36076 27.8438,-10.13263 41.25,-15.04858 13.4063,-4.91595 25.7813,-9.38382 27.5,-9.9286 1.7188,-0.54477 14.375,-5.06741 28.125,-10.05029 33.1563,-12.01556 68.2818,-24.532333 98.125,-34.966276 58.9689,-20.617028 75.7235,-26.661369 77.1875,-27.845945 1.1846,-0.958483 1.5625,-0.345438 1.5625,2.534618 0,2.089389 -0.7031,4.127014 -1.5625,4.528057 -1.25,0.583332 -1.25,0.875 0,1.458332 0.8594,0.401043 1.5625,2.042019 1.5625,3.646616 0,3.173217 -1.9625,4.146514 -20,9.919054 -5.1562,1.650153 -21.75,7.321328 -36.875,12.602611 -50.2366,17.541403 -73.5541,25.623453 -104.375,36.177193 -9.2812,3.1781 -21.375,7.40047 -26.875,9.38303 -5.5,1.98257 -16.75,5.94265 -25,8.80019 -8.25,2.85754 -27.375,9.59676 -42.5,14.97606 -15.125,5.3793 -41.2812,14.56619 -58.125,20.41529 -16.8437,5.8491 -41.875,14.67815 -55.625,19.62011 -13.75,4.94195 -32.5937,11.66525 -41.875,14.94065 -9.2812,3.27542 -39.6562,14.24395 -67.5,24.37455 -27.8437,10.13059 -62.1562,22.51932 -76.25,27.53048 -14.0937,5.01117 -34.3437,12.30857 -45,16.21644 -23.307,8.54711 -30.6841,11.231 -51.875,18.87252 -8.9375,3.2229 -21.5937,7.80398 -28.125,10.18015 -6.5312,2.37619 -20.3125,7.33274 -30.625,11.01456 -34.5625,12.33968 -59.9459,21.57002 -66.6087,24.22145 -3.6349,1.44643 -7.2912,2.62127 -8.125,2.61074 -2.7349,-0.0345 1.9659,-2.35457 10.3587,-5.11232 4.4688,-1.46838 9.8125,-3.42278 11.875,-4.34311 2.0625,-0.92033 7.4063,-3.01974 11.875,-4.66536 14.4261,-5.31238 48.0176,-18.51257 51.7545,-20.33753 1.9963,-0.9749 4.5275,-1.79612 5.625,-1.82494 2.3798,-0.0625 11.3979,-4.81949 9.2801,-4.8952 -1.4929,-0.0534 -25.2052,8.2579 -35.4096,12.41124 -3.0937,1.2592 -7.5937,2.87095 -10,3.58167 -3.8002,1.12244 -19.9295,6.94412 -33.75,12.18167 -7.3979,2.80358 -33.2222,12.23047 -57.5,20.98979 -12.7187,4.58887 -25.0937,9.12268 -27.5,10.07514 -2.4062,0.95247 -12.5335,4.59518 -22.505,8.09492 -16.5417,5.80572 -21.3332,7.22164 -19.8909,5.87798 z m 225.6141,-79.6657 c 1.0573,-1.71069 -1.2296,-1.29399 -3.9168,0.71371 -2.3409,1.74897 -2.3267,1.78769 0.4056,1.09913 1.5576,-0.39255 3.1376,-1.20833 3.5112,-1.81284 z M 1548.75,368.17946 c 1.7188,-1.01249 4.25,-1.8437 5.625,-1.84716 1.9998,-0.005 2.1249,0.20248 0.625,1.03702 -1.0312,0.57383 -3.5625,1.40504 -5.625,1.84715 l -3.75,0.80385 3.125,-1.84086 z m 98.125,-0.0494 c 4.2189,-1.98825 8.9909,-2.63358 5.625,-0.7607 -1.0312,0.57382 -3.5625,1.37735 -5.625,1.78564 l -3.75,0.74231 3.75,-1.76725 z m 505.902,-4.18237 c -1.9487,-1.23666 3.3654,-3.96993 7.5944,-3.90607 l 2.7536,0.0416 -2.951,2.45841 c -3.1922,2.6594 -4.908,2.98555 -7.397,1.40607 z M 1665,361.875 c 5.7071,-2.1978 7.9526,-2.16536 3.125,0.0451 -2.0625,0.94442 -4.5937,1.69968 -5.625,1.67839 -1.0312,-0.0212 0.094,-0.79689 2.5,-1.72352 z m -89.3125,-2.98451 c 0.6531,-0.61023 2.5938,-1.47744 4.3125,-1.92714 l 3.125,-0.81764 -3.125,1.88285 c -3.4828,2.0984 -6.2219,2.64585 -4.3125,0.86193 z M 1673.75,358.75 c 1.0313,-0.66645 2.7188,-1.21171 3.75,-1.21171 1.6666,0 1.6666,0.13462 0,1.21171 -1.0312,0.66645 -2.7187,1.21171 -3.75,1.21171 -1.6666,0 -1.6666,-0.13462 0,-1.21171 z M 1590,353.22144 c 1.7188,-1.03556 3.9688,-1.88568 5,-1.88914 1.6666,-0.005 1.6666,0.11163 0,1.05451 -1.0312,0.58343 -3.2812,1.43354 -5,1.88913 l -3.125,0.82835 3.125,-1.88285 z m 11.8803,-4.32709 c 7.4653,-3.40193 12.2698,-4.52784 6.8697,-1.60994 -2.4062,1.3002 -6.0625,2.70751 -8.125,3.12738 -3.169,0.6451 -2.9746,0.41001 1.2553,-1.51744 z M 1838.125,308.75 c 0.4249,-0.6875 1.7237,-1.24139 2.8863,-1.23086 1.8216,0.0165 1.8546,0.18661 0.2387,1.23086 -2.448,1.582 -4.1027,1.582 -3.125,0 z m -62.1645,-1.46056 c 0.7265,-0.72638 2.0586,-1.07474 2.9604,-0.77414 0.9362,0.31206 0.3696,0.87867 -1.3206,1.32069 -2.0793,0.54371 -2.5673,0.38103 -1.6398,-0.54655 z m -30.3355,-3.44953 c 2.75,-1.32247 5.8438,-2.4242 6.875,-2.44827 2.1424,-0.05 -4.2545,2.90025 -8.8307,4.07277 -1.6744,0.429 -0.7943,-0.30202 1.9557,-1.6245 z M 1848.125,305 c 3.4364,-1.47665 5.41,-1.47665 3.125,0 -1.0312,0.66645 -2.7187,1.1808 -3.75,1.143 -1.2364,-0.0452 -1.0234,-0.43465 0.625,-1.143 z m 5.625,-1.7404 c 0,-0.60091 23.2679,-9.61744 31.875,-12.35185 3.4375,-1.09206 13.5625,-4.49155 22.5,-7.5544 16.6514,-5.70635 26.7639,-8.32655 23.0295,-5.96708 -2.492,1.57459 -20.1222,7.93952 -50.633,18.2797 -22.2869,7.55308 -26.7715,8.82512 -26.7715,7.59363 z m -60.2895,-2.22016 c 0.7265,-0.72638 2.0586,-1.07474 2.9604,-0.77414 0.9362,0.31206 0.3696,0.87867 -1.3206,1.32069 -2.0793,0.54371 -2.5673,0.38103 -1.6398,-0.54655 z m -35.8564,-1.54221 C 1758.2766,298.84814 1780.956,290 1781.9474,290 c 0.4132,0 4.2221,-1.37151 8.4644,-3.04781 4.2423,-1.6763 15.5882,-5.97929 25.2132,-9.56219 9.625,-3.5829 23.4063,-8.72741 30.625,-11.43226 7.2188,-2.70485 17.625,-6.50487 23.125,-8.44447 5.5,-1.93961 16.1875,-5.88378 23.75,-8.76485 7.5625,-2.88105 19.0938,-7.0991 25.625,-9.37342 6.5313,-2.27434 22.8438,-8.16753 36.25,-13.09599 29.7049,-10.92022 33.231,-12.20219 56.875,-20.67786 10.3125,-3.69671 23.5313,-8.50061 29.375,-10.67533 15.3175,-5.70031 29.8644,-11.03325 35.625,-13.06027 2.75,-0.96765 16.8125,-6.04009 31.25,-11.27208 14.4375,-5.23198 34.4063,-12.32611 44.375,-15.76472 9.9688,-3.43861 25.1563,-8.80753 33.75,-11.93094 8.5938,-3.1234 25.1875,-9.03509 36.875,-13.13706 11.6875,-4.10198 32.5,-11.40862 46.25,-16.23699 46.5925,-16.361119 74.9819,-26.272011 80,-27.928365 11.6206,-3.835695 34.2346,-11.810201 40.3587,-14.231986 8.6379,-3.41582 10.2663,-3.334678 10.2663,0.511591 0,1.71875 -0.224,3.125 -0.4977,3.125 -0.2738,0 -12.7894,4.26485 -27.8125,9.477444 -15.0232,5.212593 -31.2523,10.778782 -36.0648,12.369307 -16.3176,5.392969 -143.2595,49.429389 -170,58.973399 -4.8125,1.71764 -11.8437,4.14409 -15.625,5.3921 -3.7812,1.24801 -18.125,6.21759 -31.875,11.04349 -60.0406,21.07275 -69.7935,24.47988 -88.125,30.78612 -10.6562,3.66586 -30.625,10.73449 -44.375,15.70804 -13.75,4.97356 -38.2187,13.77615 -54.375,19.56132 -16.1562,5.78518 -36.125,13.00529 -44.375,16.04472 -8.25,3.03941 -34.6875,12.54412 -58.75,21.12156 -24.0625,8.57744 -49.337,17.60395 -56.1654,20.05891 -11.3486,4.08004 -15.7317,5.28938 -14.3555,3.96082 z"
       id="path3350"
       inkscape:connector-curvature="0" />
  </g>
  <rect
     style="fill:#000000;fill-opacity:0"
     id="rect3346"
     width="23.262032"
     height="16.04278"
     x="420.32086"
     y="536.90509" />
</svg>
